<svg width="24" height="24" version="1.1" viewBox="0 0 24 24" xmlns="http://www.w3.org/2000/svg">
 <path d="m18.522 1.3961a2.9751 2.9751 0 0 0-0.2259-0.11413 2.9751 2.9751 0 0 0-0.13297-0.057442 2.9751 2.9751 0 0 0-0.14588-0.058198 2.9751 2.9751 0 0 0-0.1392-0.043459 2.9751 2.9751 0 0 0-0.13694-0.038924 2.9751 2.9751 0 0 0-0.13629-0.030232 2.9751 2.9751 0 0 0-0.17711-0.030232 2.9751 2.9751 0 0 0-0.09507-0.00756 2.9751 2.9751 0 0 0-0.1943-0.015116 2.9751 2.9751 0 0 0-0.10541-4.534e-4 2.9751 2.9751 0 0 0-0.20275 0.00378 2.9751 2.9751 0 0 0-0.06621 0.00756 2.9751 2.9751 0 0 0-0.23748 0.030232 2.9751 2.9751 0 0 0-0.04875 0.00756 2.9751 2.9751 0 0 0-0.22834 0.052529 2.9751 2.9751 0 0 0-0.08346 0.026453 2.9751 2.9751 0 0 0-0.20662 0.07029 2.9751 2.9751 0 0 0-0.05339 0.022674 2.9751 2.9751 0 0 0-0.21931 0.098255 2.9751 2.9751 0 0 0-0.04444 0.026453 2.9751 2.9751 0 0 0-0.22179 0.12849 2.9751 2.9751 0 0 0-0.01992 0.015116 2.9751 2.9751 0 0 0-0.21637 0.15683 2.9751 2.9751 0 0 0-0.03481 0.026453 2.9751 2.9751 0 0 0-0.19326 0.17195 2.9751 2.9751 0 0 0-0.01421 0.015116 2.9751 2.9751 0 0 0-0.1879 0.20369 2.9751 2.9751 0 0 0-0.01398 0.015116 2.9751 2.9751 0 0 0-0.15632 0.20671 2.9751 2.9751 0 0 0-0.07239 0.11073 2.9751 2.9751 0 0 0-0.05264 0.085407 2.9751 2.9751 0 0 0-0.112 0.21692 2.9751 2.9751 0 0 0-0.04137 0.091831 2.9751 2.9751 0 0 0-0.07075 0.18064 2.9751 2.9751 0 0 0-0.03254 0.097122 2.9751 2.9751 0 0 0-0.0524 0.18933 2.9751 2.9751 0 0 0-0.02252 0.094098 2.9751 2.9751 0 0 0-0.03639 0.21692 2.9751 2.9751 0 0 0-0.0083 0.060843 2.9751 2.9751 0 0 0-0.01587 0.22221 2.9751 2.9751 0 0 0-0.0023 0.094098 2.9751 2.9751 0 0 0 0.0055 0.19084 2.9751 2.9751 0 0 0 0.0083 0.11035 2.9751 2.9751 0 0 0 0.02181 0.18026 2.9751 2.9751 0 0 0 0.01939 0.11186 2.9751 2.9751 0 0 0 0.0463 0.19273 2.9751 2.9751 0 0 0 0.02388 0.089563 2.9751 2.9751 0 0 0 0.06423 0.1882 2.9751 2.9751 0 0 0 0.03673 0.093343 2.9751 2.9751 0 0 0 0.08411 0.18291 2.9751 2.9751 0 0 0 0.06986 0.13756 2.9751 2.9751 0 0 0 0.01549 0.030232 2.9751 2.9751 0 0 0 0.0013 7.18e-4l-1.6888 2.925a1.4875 0.74379 30 0 0-0.03069 0.067645 1.4875 0.74379 30 0 0 0.09551 0.52317 1.4875 0.74379 30 0 0 0.30982 0.39019 1.4875 0.74379 30 0 0 0.10179 0.093721 1.4875 0.74379 30 0 0 0.11207 0.090697 1.4875 0.74379 30 0 0 0.01867 0.015116 1.4875 0.74379 30 0 0 0.30817 0.20709 1.4875 0.74379 30 0 0 0.33598 0.16477 1.4875 0.74379 30 0 0 0.08254 0.030232 1.4875 0.74379 30 0 0 0.05186 0.018895 1.4875 0.74379 30 0 0 0.06656 0.022675 1.4875 0.74379 30 0 0 0.06656 0.02267 1.4875 0.74379 30 0 0 0.09952 0.02645 1.4875 0.74379 30 0 0 0.0319 0.0076 1.4875 0.74379 30 0 0 0.0013 7.55e-4 1.4875 0.74379 30 0 0 0.09723 0.01512 1.4875 0.74379 30 0 0 0.02785 0.0038 1.4875 0.74379 30 0 0 0.0633 0.0076 1.4875 0.74379 30 0 0 0.05947 0.0076 1.4875 0.74379 30 0 0 0.07526 0.0028 1.4875 0.74379 30 0 0 0.04129 0.0011 1.4875 0.74379 30 0 0 0.0033 1.51e-4 1.4875 0.74379 30 0 0 0.05684-0.0026 1.4875 0.74379 30 0 0 0.06597-0.0028 1.4875 0.74379 30 0 0 2e-3 -6.05e-4 1.4875 0.74379 30 0 0 0.09668-0.01512 1.4875 0.74379 30 0 0 0.09002-0.02645 1.4875 0.74379 30 0 0 0.07894-0.03401 1.4875 0.74379 30 0 0 0.1675-0.15645l1.6887-2.925a2.9751 2.9751 0 0 0 0.0013 7.558e-4 2.9751 2.9751 0 0 0 0.03235-7.936e-4 2.9751 2.9751 0 0 0 0.15409-0.00756 2.9751 2.9751 0 0 0 0.20029-0.018895 2.9751 2.9751 0 0 0 0.09594-0.015116 2.9751 2.9751 0 0 0 0.20685-0.04157 2.9751 2.9751 0 0 0 0.07075-0.015116 2.9751 2.9751 0 0 0 0.20478-0.061221 2.9751 2.9751 0 0 0 0.08588-0.034011 2.9751 2.9751 0 0 0 0.20293-0.083895 2.9751 2.9751 0 0 0 0.0583-0.030232 2.9751 2.9751 0 0 0 0.19357-0.10279 2.9751 2.9751 0 0 0 0.07643-0.047994 2.9751 2.9751 0 0 0 0.18456-0.12471 2.9751 2.9751 0 0 0 0.04569-0.034011 2.9751 2.9751 0 0 0 0.19118-0.15985 2.9751 2.9751 0 0 0 0.01334-0.011337 2.9751 2.9751 0 0 0 0.01311-0.015116 2.9751 2.9751 0 0 0 0.18305-0.18631 2.9751 2.9751 0 0 0 0.02596-0.030233 2.9751 2.9751 0 0 0 0.16032-0.19916 2.9751 2.9751 0 0 0 0.02706-0.037791 2.9751 2.9751 0 0 0 0.14774-0.22674 2.9751 2.9751 0 0 0 0.08888-0.16855 2.9751 2.9751 0 0 0 0.0094-0.018895 2.9751 2.9751 0 0 0 0.0014-0.00242 2.9751 2.9751 0 0 0 0.09853-0.23166 2.9751 2.9751 0 0 0 0.02366-0.058575 2.9751 2.9751 0 0 0 0.07259-0.23317 2.9751 2.9751 0 0 0 0.01225-0.04157 2.9751 2.9751 0 0 0 0.05293-0.26302 2.9751 2.9751 0 0 0 0.0039-0.015116 2.9751 2.9751 0 0 0 0.0014-0.00756 2.9751 2.9751 0 0 0 0.02441-0.2343 2.9751 2.9751 0 0 0 0.0054-0.078982 2.9751 2.9751 0 0 0 0.0015-0.19689 2.9751 2.9751 0 0 0-0.0033-0.1077 2.9751 2.9751 0 0 0-0.01784-0.18147 2.9751 2.9751 0 0 0-0.01455-0.11413 2.9751 2.9751 0 0 0-0.03666-0.18064 2.9751 2.9751 0 0 0-0.02347-0.10733 2.9751 2.9751 0 0 0-0.06216-0.20029 2.9751 2.9751 0 0 0-0.02464-0.076337 2.9751 2.9751 0 0 0-0.08432-0.19953 2.9751 2.9751 0 0 0-0.03333-0.072936 2.9751 2.9751 0 0 0-0.10614-0.19386 2.9751 2.9751 0 0 0-0.038229-0.067267 2.9751 2.9751 0 0 0-0.1221-0.17799 2.9751 2.9751 0 0 0-0.048017-0.068023 2.9751 2.9751 0 0 0-0.11286-0.13567 2.9751 2.9751 0 0 0-0.094506-0.10657 2.9751 2.9751 0 0 0-0.10515-0.10279 2.9751 2.9751 0 0 0-0.10545-0.095988 2.9751 2.9751 0 0 0-0.12087-0.095988 2.9751 2.9751 0 0 0-0.11736-0.087296 2.9751 2.9751 0 0 0-0.21189-0.13869 2.9751 2.9751 0 0 0-0.0013-7.18e-4zm-5.4989 8.7837-3.7813 6.5495 2.203e-4 -1.5867a0.37189 0.37189 0 0 0-0.37272-0.3711 0.37189 0.37189 0 0 0-0.37175 0.37072l-2.226e-4 1.5867-1.909-3.3063a0.37189 0.37189 0 0 0-0.50866-0.13567 0.37189 0.37189 0 0 0-0.13596 0.50862l1.909 3.3063-2.34-1.351a0.37189 0.37189 0 0 0-0.50802 0.13605 0.37189 0.37189 0 0 0 0.13612 0.50806l2.34 1.351-1.5867-2.27e-4a0.37189 0.37189 0 0 0-0.37122 0.37262 0.37189 0.37189 0 0 0 0.37075 0.37186l1.5867 2.27e-4 -3.3063 1.909a0.37189 0.37189 0 0 0-0.13524 0.50734 0.37189 0.37189 0 0 0 0.5079 0.13718l3.3063-1.909-1.351 2.34a0.37189 0.37189 0 0 0 0.13612 0.50802 0.37189 0.37189 0 0 0 0.50802-0.13605l1.351-2.34-2.207e-4 1.5867a0.37189 0.37189 0 0 0 0.37272 0.37148 0.37189 0.37189 0 0 0 0.37175-0.37072l2.086e-4 -1.5867 1.909 3.3063a0.37189 0.37189 0 0 0 0.50855 0.13605 0.37189 0.37189 0 0 0 0.13596-0.50855l-1.909-3.3063 2.34 1.351a0.37189 0.37189 0 0 0 0.50802-0.13605 0.37189 0.37189 0 0 0-0.13612-0.50798l-2.34-1.351 1.5867 2.26e-4a0.37189 0.37189 0 0 0 0.37122-0.37261 0.37189 0.37189 0 0 0-0.37075-0.37186l-1.5867-2.27e-4 3.3063-1.909a0.37189 0.37189 0 0 0 0.13596-0.50858 0.37189 0.37189 0 0 0-0.12884-0.13113 0.37189 0.37189 0 0 0-0.37979-0.0038l-3.3063 1.909 3.7813-6.5495c-0.11072-0.05102-0.22158-0.10506-0.33187-0.16892-0.10949-0.06311-0.21455-0.13038-0.31227-0.20294z" style="stroke-width:3.7791"/>
</svg>
