<svg width="512" height="422" version="1.1" viewBox="-92 -92 512 422" xmlns="http://www.w3.org/2000/svg">
 <path d="m0-92a92 92 0 0 0-92 92 92 92 0 0 0 92 92 92 92 0 0 0 31.385-5.6035 158 158 0 0 0-25.385 85.604 158 158 0 0 0 158 158 158 158 0 0 0 158-158 158 158 0 0 0-25.193-85.57 92 92 0 0 0 31.193 5.5703 92 92 0 0 0 92-92 92 92 0 0 0-92-92 92 92 0 0 0-92 92 92 92 0 0 0 7.2031 35.459 158 158 0 0 0-79.203-21.459 158 158 0 0 0-79.133 21.471 92 92 0 0 0 7.1328-35.471 92 92 0 0 0-92-92z"/>
</svg>
