<?xml version="1.0" encoding="UTF-8" standalone="no"?>
<svg
   xmlns:dc="http://purl.org/dc/elements/1.1/"
   xmlns:cc="http://creativecommons.org/ns#"
   xmlns:rdf="http://www.w3.org/1999/02/22-rdf-syntax-ns#"
   xmlns:svg="http://www.w3.org/2000/svg"
   xmlns="http://www.w3.org/2000/svg"
   xmlns:sodipodi="http://sodipodi.sourceforge.net/DTD/sodipodi-0.dtd"
   xmlns:inkscape="http://www.inkscape.org/namespaces/inkscape"
   width="24"
   height="24"
   version="1.1"
   viewBox="0 0 18 18"
   id="svg4544"
   sodipodi:docname="patio.svg"
   inkscape:version="0.92.4 (5da689c313, 2019-01-14)">
  <metadata
     id="metadata4550">
    <rdf:RDF>
      <cc:Work
         rdf:about="">
        <dc:format>image/svg+xml</dc:format>
        <dc:type
           rdf:resource="http://purl.org/dc/dcmitype/StillImage" />
        <dc:title></dc:title>
      </cc:Work>
    </rdf:RDF>
  </metadata>
  <defs
     id="defs4548" />
  <sodipodi:namedview
     pagecolor="#ffffff"
     bordercolor="#666666"
     borderopacity="1"
     objecttolerance="10"
     gridtolerance="10"
     guidetolerance="10"
     inkscape:pageopacity="0"
     inkscape:pageshadow="2"
     inkscape:window-width="1920"
     inkscape:window-height="1137"
     id="namedview4546"
     showgrid="false"
     units="px"
     inkscape:zoom="15.06383"
     inkscape:cx="-2.1344732"
     inkscape:cy="15.969388"
     inkscape:window-x="-8"
     inkscape:window-y="-8"
     inkscape:window-maximized="1"
     inkscape:current-layer="svg4544" />
  <path
     style="stroke-width:0.03336592"
     d="M 1.7973634,1.5717289 C 1.7458014,1.5516319 1.6862884,1.5516569 1.6303712,1.5761189 1.518537,1.6250589 1.4701027,1.7513939 1.519043,1.8632282 1.8126884,2.5274312 2.2255605,3.1143732 2.729004,3.6107868 2.4423695,3.5408818 2.1349161,3.6319928 1.932129,3.86274 1.6384835,4.1983186 1.6727162,4.708743 2.008301,5.0023883 c 0.1468228,0.12586 0.3359809,0.2036133 0.5317383,0.2036133 0.2307551,0 0.4541426,-0.09912 0.6079101,-0.2739257 0.1398097,-0.16077 0.2102541,-0.3706644 0.196289,-0.5873978 -0.00701,-0.09087 -0.028073,-0.1809589 -0.062988,-0.2578125 0.3216324,0.2376906 0.6713352,0.4474451 1.0488281,0.6152344 -0.069905,0.00701 -0.1468863,0.028074 -0.2167969,0.062988 -0.1957574,0.08393 -0.3493574,0.2439901 -0.4262695,0.4467773 -0.076918,0.2027682 -0.070674,0.4197714 0.013184,0.6225586 0.083931,0.1957574 0.2454551,0.3493575 0.4482422,0.4262696 0.09087,0.03499 0.1950806,0.057129 0.2929687,0.057129 0.1118343,0 0.2232261,-0.021373 0.328125,-0.070312 C 4.9652867,6.1635836 5.1203536,6.0020551 5.1972657,5.7992679 5.2741778,5.5964809 5.2664737,5.3794966 5.1826172,5.1767094 5.1476269,5.0997917 5.1052695,5.0301365 5.0493165,4.9672367 5.426885,5.0790711 5.8047557,5.1488 6.1962892,5.1767094 6.1193714,5.2116997 6.0423899,5.2617665 5.9794922,5.3246586 5.8256566,5.4714813 5.73455,5.673355 5.7275392,5.8900883 5.7205265,6.1068217 5.8048337,6.310464 5.9516603,6.4643071 6.098483,6.6181426 6.3018212,6.7092493 6.5185547,6.7162602 h 0.013184 c 0.097882,0 0.1885246,-0.02183 0.2724609,-0.049805 C 6.5803784,6.8128361 6.3425327,6.9595447 6.0908204,7.0854008 6.0279282,7.0154958 5.9312698,6.9878074 5.8403321,7.0297367 5.7494624,7.064727 5.7000923,7.1629844 5.7070313,7.2538579 5.3084868,7.4076934 4.8883511,7.5198742 4.4619142,7.5687992 4.4409494,7.4639041 4.3438417,7.3933294 4.2319337,7.4003422 4.1200993,7.4073548 4.0353312,7.4976048 4.0283204,7.6024906 3.5808318,7.6164423 3.1331739,7.5758614 2.6997071,7.4779789 c -0.055953,-0.013952 -0.1107276,-1.45e-4 -0.1596679,0.027832 -0.04894,0.027977 -0.084194,0.075883 -0.098145,0.1318359 -0.013952,0.055953 -1.449e-4,0.1121925 0.027832,0.1611328 0.027977,0.04894 0.077348,0.084194 0.1333007,0.098145 0.4055555,0.09087 0.8179781,0.1391602 1.2304688,0.1391602 C 3.7635922,8.0780134 3.7007975,8.1269278 3.6518555,8.189893 3.5050327,8.3506676 3.433907,8.5547026 3.440918,8.771436 3.447928,8.9881693 3.5467374,9.1827092 3.7075196,9.3295414 3.8543424,9.4624123 4.0496732,9.5404789 4.2524415,9.5404789 h 0.04248 C 4.7424113,9.5195152 5.0849409,9.1412877 5.0639649,8.6937992 5.0569523,8.4770658 4.9581455,8.2810612 4.7973634,8.1342289 4.7274584,8.0713368 4.6513152,8.022733 4.5673829,7.9877446 4.9519056,7.9388044 5.3299122,7.8484753 5.6865235,7.7226079 5.5187361,7.9463521 5.4692165,8.2457186 5.5810547,8.5253422 c 0.083931,0.2027682 0.238131,0.3567383 0.4409181,0.4335938 0.097882,0.041929 0.2027181,0.062988 0.3076171,0.062988 0.1048991,0 0.2100612,-0.021061 0.3149414,-0.062988 0.2027682,-0.083931 0.3552735,-0.236666 0.432129,-0.4394531 0.076918,-0.2027683 0.083931,-0.4197714 0,-0.6225587 C 6.9927296,7.6941562 6.8399942,7.5401859 6.6372071,7.4633305 6.5673021,7.435353 6.4900076,7.4146792 6.413086,7.4076664 7.5527648,6.8135158 8.4694081,5.8278551 8.9868166,4.5834477 v -0.00732 c 0,-0.00701 0.00586,-0.014959 0.00586,-0.021973 v -0.013184 -0.027832 l 0.00732,-0.014648 0.00732,0.014648 v 0.027832 0.013184 c 0,0.00701 0.00732,0.01496 0.00732,0.021973 v 0.00732 c 0.5174202,1.2444076 1.4325984,2.2300683 2.5722774,2.8242189 -0.07692,0.00701 -0.154211,0.027687 -0.224121,0.055664 -0.202787,0.076855 -0.355523,0.2308257 -0.439453,0.4335937 -0.08393,0.2027873 -0.07692,0.4197904 0,0.6225587 0.07686,0.2027871 0.230826,0.3555221 0.433594,0.4394531 0.10488,0.041927 0.208578,0.062988 0.313476,0.062988 0.104899,0 0.209739,-0.021059 0.307617,-0.062988 0.202788,-0.076856 0.356988,-0.2308256 0.440919,-0.4335938 0.111837,-0.2796236 0.06232,-0.5789901 -0.105469,-0.8027343 0.35661,0.1258674 0.734618,0.2161965 1.11914,0.2651367 -0.08393,0.034988 -0.160076,0.083592 -0.22998,0.1464843 -0.160782,0.1468323 -0.25959,0.3428369 -0.266602,0.5595703 -0.02098,0.4474885 0.321555,0.825719 0.769044,0.8466797 h 0.04248 c 0.202769,0 0.398099,-0.078067 0.544922,-0.2109375 0.160782,-0.1468322 0.259601,-0.3413721 0.266601,-0.5581054 0.007,-0.2167334 -0.06412,-0.4207684 -0.210938,-0.581543 -0.04894,-0.062966 -0.11174,-0.1118796 -0.18164,-0.1538086 0.41249,0 0.824913,-0.04829 1.230469,-0.1391602 0.05595,-0.013951 0.105322,-0.049205 0.1333,-0.098145 0.02798,-0.04894 0.04178,-0.1051798 0.02783,-0.1611328 -0.01395,-0.055953 -0.04921,-0.103859 -0.09815,-0.1318359 -0.04894,-0.027977 -0.103718,-0.041784 -0.159668,-0.027832 -0.433467,0.097883 -0.881124,0.1384638 -1.328613,0.1245117 -0.007,-0.1048861 -0.09178,-0.1951384 -0.203613,-0.2021484 -0.111909,-0.00701 -0.209011,0.063562 -0.229981,0.168457 -0.426428,-0.048925 -0.846565,-0.1611053 -1.245109,-0.3149408 0.0069,-0.090873 -0.04243,-0.1891312 -0.133301,-0.2241212 -0.09094,-0.041929 -0.187597,-0.014241 -0.250488,0.055664 -0.251712,-0.1258561 -0.489559,-0.2725647 -0.713379,-0.4189453 0.08394,0.027975 0.174581,0.049805 0.272461,0.049805 h 0.01318 c 0.216735,-0.00701 0.420072,-0.098118 0.566894,-0.2519531 0.146825,-0.1538431 0.231121,-0.3574855 0.224121,-0.5742188 -0.007,-0.2167333 -0.09812,-0.418607 -0.251953,-0.5654297 -0.0629,-0.062892 -0.139877,-0.1129589 -0.216797,-0.1479492 0.391533,-0.027909 0.769405,-0.097638 1.146973,-0.2094727 -0.05595,0.0629 -0.09831,0.132555 -0.133301,0.2094727 -0.08385,0.2027872 -0.09009,0.4197715 -0.01318,0.6225585 0.07691,0.2027873 0.23051,0.3643113 0.426269,0.4482423 0.104898,0.04894 0.216291,0.070312 0.328125,0.070312 0.09789,0 0.203563,-0.022139 0.294433,-0.057129 0.202788,-0.076912 0.362849,-0.2305122 0.446778,-0.4262696 0.08385,-0.2027872 0.09157,-0.4197904 0.01465,-0.6225586 -0.07691,-0.2027871 -0.231979,-0.3628468 -0.427735,-0.4467773 -0.06991,-0.034915 -0.146887,-0.055975 -0.216797,-0.062988 0.377493,-0.1677893 0.727196,-0.3775438 1.048828,-0.6152344 -0.03491,0.076854 -0.05599,0.1669429 -0.06299,0.2578125 -0.01397,0.2167334 0.05648,0.4266278 0.196289,0.5874023 0.153767,0.1748059 0.377154,0.2739258 0.60791,0.2739258 0.195757,0 0.384916,-0.077753 0.531739,-0.2036133 0.335586,-0.2936454 0.371279,-0.8040697 0.07764,-1.1396484 -0.202787,-0.2307472 -0.511705,-0.321858 -0.79834,-0.2519531 0.503444,-0.4964137 0.916315,-1.0833556 1.209961,-1.7475586 0.04894,-0.1118343 5.06e-4,-0.2381694 -0.111328,-0.2871093 -0.111835,-0.04894 -0.238168,9.586e-4 -0.28711,0.1127929 -0.300654,0.6851601 -0.733763,1.2786636 -1.286132,1.7680664 -0.08387,-0.069902 -0.203179,-0.077233 -0.28711,-0.00732 -0.04193,0.034988 -0.06917,0.091996 -0.07617,0.1479492 -0.007,0.041929 0.0069,0.084048 0.02783,0.1259766 -0.342666,0.2586665 -0.720597,0.4679548 -1.119141,0.6357422 -0.05595,-0.076918 -0.153759,-0.1053028 -0.244629,-0.070312 -0.09087,0.034922 -0.13916,0.118603 -0.13916,0.2094726 -0.426437,0.1327953 -0.860305,0.2178049 -1.300781,0.2387696 -0.0069,-0.048942 -0.028,-0.090675 -0.06299,-0.1186524 -0.042,-0.042002 -0.09786,-0.057129 -0.153808,-0.057129 -0.104826,0.00701 -0.188513,0.083758 -0.209473,0.1816406 C 10.57367,4.7221397 9.9302191,4.5763508 9.3149416,4.3036625 h -0.00732 c -0.014026,0 -0.020822,-0.00732 -0.027832,-0.00732 h -0.014648 c -0.014025,-0.00701 -0.019741,-0.00732 -0.033691,-0.00732 h -0.00732 -0.035156 -0.00732 c -0.00701,0 -0.013499,0.00732 -0.020508,0.00732 -0.013955,0.00701 -0.014962,0.00732 -0.021973,0.00732 h -0.00586 c -0.00694,0 -0.00764,0.00732 -0.014648,0.00732 -0.00701,0.00694 -0.013498,0.00617 -0.020508,0.013184 l -0.014648,0.014648 c -0.013955,0.00694 -0.013498,0.00617 -0.020508,0.013184 -0.00694,0 -0.00764,0.00763 -0.014648,0.014648 -0.00694,0.00694 -0.013184,0.00617 -0.013184,0.013184 -0.00694,0.00701 -0.00764,0.013495 -0.014648,0.020508 0,0.00694 -0.00586,0.00764 -0.00586,0.014648 v 0.00732 c 0,0.00701 -0.00732,0.013495 -0.00732,0.020508 -0.00701,0.00694 -0.00732,0.00764 -0.00732,0.014648 0,-0.00701 -3.188e-4,-0.00771 -0.00732,-0.014648 0,-0.00701 -0.00732,-0.013495 -0.00732,-0.020508 v -0.00732 c 0,-0.00701 -0.00586,-0.00771 -0.00586,-0.014648 -0.00701,-0.00701 -0.00771,-0.013495 -0.014648,-0.020508 0,-0.00701 -0.00624,-0.00624 -0.013184,-0.013184 -0.00701,-0.00701 -0.00771,-0.014648 -0.014648,-0.014648 -0.00701,-0.00701 -0.00655,-0.00624 -0.020508,-0.013184 l -0.014648,-0.014648 c -0.00701,-0.00701 -0.013494,-0.00624 -0.020508,-0.013184 -0.00701,0 -0.00771,-0.00732 -0.014648,-0.00732 h -0.00586 c -0.00701,0 -0.00802,-3.114e-4 -0.021973,-0.00732 -0.00701,0 -0.013494,-0.00732 -0.020508,-0.00732 h -0.00732 -0.035156 -0.00586 c -0.013951,0 -0.02113,3.115e-4 -0.035156,0.00732 h -0.014648 c -0.00701,0 -0.013806,0.00732 -0.027832,0.00732 h -0.00732 C 8.0697488,4.5763478 7.4263297,4.7221396 6.769043,4.7431156 6.7480781,4.6452333 6.6643976,4.5684878 6.5595704,4.561475 c -0.055953,0 -0.1118075,0.015127 -0.1538086,0.057129 -0.03499,0.027977 -0.056049,0.06971 -0.062988,0.1186524 C 5.9022959,4.7162916 5.469894,4.631282 5.0434571,4.4984867 c 0,-0.09087 -0.049755,-0.1745504 -0.140625,-0.2094726 -0.09087,-0.03499 -0.1886796,-0.00661 -0.2446289,0.070312 C 4.2596414,4.1915399 3.8817277,3.9822509 3.5390626,3.7235844 3.5600276,3.6816554 3.5739066,3.6395364 3.5668946,3.5976078 3.5598846,3.5416548 3.5326506,3.484647 3.4907226,3.4496586 3.4067916,3.3797536 3.2874795,3.3870848 3.2036132,3.4569826 2.6512445,2.9675826 2.2181368,2.3740765 1.9174805,1.6889164 1.8930105,1.6329994 1.8489255,1.5918254 1.7973634,1.5717289 Z m 0.7221679,2.4448242 c 0.097883,-0.00701 0.1955299,0.027928 0.2724609,0.09082 0.076931,0.062892 0.1189638,0.1540764 0.1259766,0.2519531 0.00701,0.097882 -0.027927,0.1955299 -0.09082,0.2724609 -0.062892,0.076918 -0.1544466,0.1189638 -0.2592776,0.1259766 -0.097882,0.00701 -0.19553,-0.027928 -0.2724609,-0.09082 C 2.1415745,4.534073 2.1274566,4.2963728 2.260254,4.1425297 2.323146,4.0656119 2.4147003,4.0235659 2.5195313,4.0165531 Z m 12.9624027,0 c 0.104832,0.00701 0.194922,0.049059 0.257812,0.1259766 0.132798,0.1538431 0.118684,0.3915432 -0.03516,0.5244141 -0.07693,0.062892 -0.174581,0.097833 -0.272461,0.09082 -0.104831,-0.00701 -0.194923,-0.049059 -0.257812,-0.1259766 -0.06289,-0.076931 -0.09929,-0.1745785 -0.09229,-0.2724609 0.007,-0.097877 0.04905,-0.1890609 0.125977,-0.2519532 0.07693,-0.062893 0.176047,-0.09783 0.273926,-0.09082 z M 8.3569336,4.9042485 C 8.0632883,5.4496062 7.6787956,5.9327751 7.2172853,6.3383305 7.294203,6.2123969 7.3436493,6.0643446 7.350586,5.9105961 7.3575993,5.6938627 7.2732917,5.4916853 7.1264649,5.3378422 7.0635729,5.2679373 6.9862781,5.2116241 6.9023438,5.1767094 7.3917465,5.1487319 7.8814771,5.0580897 8.3569336,4.9042485 Z m 1.286133,0 c 0.4754554,0.1538412 0.9651874,0.2444834 1.4545894,0.2724609 -0.08394,0.034915 -0.161231,0.091228 -0.224121,0.1611328 -0.146825,0.1538431 -0.231121,0.3560205 -0.224121,0.5727539 0.0069,0.1537485 0.05638,0.3018008 0.133301,0.4277344 C 10.321205,5.9327751 9.9367118,5.4496062 9.6430666,4.9042485 Z M 4.4487305,5.1063969 c 0.041929,0.00701 0.0913,0.015345 0.1333008,0.029297 0.09087,0.03499 0.1675377,0.1039622 0.2094727,0.1948242 0.041935,0.090862 0.042247,0.1962323 0.00732,0.2871095 -0.03499,0.09087 -0.105427,0.1675376 -0.196289,0.2094726 -0.090862,0.041935 -0.1962322,0.042245 -0.2871095,0.00732 C 4.2245625,5.7994302 4.1478879,5.7289933 4.1059529,5.6381312 4.0639499,5.5472612 4.0637079,5.4434394 4.0986329,5.3524866 4.1336229,5.2616166 4.20406,5.1834842 4.294922,5.1415491 4.343862,5.1205841 4.392777,5.1063931 4.4487305,5.1063931 Z m 9.1025385,0 c 0.05596,0 0.104869,0.014192 0.15381,0.035156 0.09086,0.041935 0.161298,0.120068 0.196288,0.2109375 0.0349,0.090953 0.03466,0.1947749 -0.0073,0.2856446 -0.04193,0.090862 -0.118602,0.1612987 -0.209472,0.196289 -0.09088,0.034916 -0.19625,0.034607 -0.28711,-0.00732 -0.09086,-0.041935 -0.159834,-0.1186031 -0.194824,-0.2094726 -0.03493,-0.090877 -0.03612,-0.1962473 0.0059,-0.2871095 0.04194,-0.090862 0.118603,-0.1598338 0.209473,-0.1948242 0.042,-0.013952 0.09137,-0.022284 0.1333,-0.029297 z M 6.5317384,5.526807 h 0.00732 c 0.097882,0 0.1952165,0.041423 0.2651367,0.1113282 0.069979,0.069905 0.1124815,0.1613853 0.1054687,0.2592773 0,0.097882 -0.041734,0.1952166 -0.1186523,0.2651367 C 6.7211065,6.2324542 6.6222999,6.268018 6.52441,6.268018 6.426527,6.268018 6.3295067,6.22513 6.2665975,6.155225 6.1966925,6.08532 6.1611287,5.9879783 6.1611287,5.8900883 c 0,-0.097882 0.042888,-0.1949033 0.112793,-0.2578125 C 6.3438308,5.5623708 6.4338466,5.526807 6.5317384,5.526807 Z m 4.9291996,0 h 0.0073 c 0.09789,0 0.187902,0.035564 0.257813,0.1054688 0.0699,0.062909 0.112792,0.1599301 0.112792,0.2578125 0,0.09789 -0.03556,0.1952318 -0.105469,0.2651367 -0.06291,0.069905 -0.159932,0.112793 -0.257812,0.112793 -0.09789,0 -0.196693,-0.035564 -0.266602,-0.1054688 -0.07692,-0.06992 -0.118652,-0.1672543 -0.118652,-0.2651367 -0.007,-0.097892 0.03549,-0.1893723 0.105469,-0.2592773 0.06992,-0.069905 0.167256,-0.1113282 0.265137,-0.1113282 z M 1.7592774,7.1937992 c -0.1025859,0.0082 -0.1635943,0.0838 -0.1845703,0.1362305 -0.027978,0.069905 -0.028316,0.2172082 0.1464844,0.2871094 0.03499,0.013952 0.070478,0.020508 0.1054688,0.020508 0.1048953,0 0.1753318,-0.06887 0.196289,-0.1318359 0.027977,-0.069831 0.034175,-0.2172082 -0.140625,-0.2871094 l -0.00732,-0.00732 c -0.0437,-0.015723 -0.081527,-0.02031 -0.1157227,-0.017578 z m 14.4814456,0 c -0.0342,-0.00273 -0.07202,0.00186 -0.115723,0.017578 l -0.0073,0.00732 c -0.1748,0.069901 -0.168605,0.2172784 -0.140625,0.2871094 0.02096,0.062966 0.09139,0.1318359 0.196289,0.1318359 0.03499,0 0.07048,-0.00656 0.105469,-0.020508 0.174804,-0.069901 0.174464,-0.2172044 0.146484,-0.2871094 -0.02098,-0.05243 -0.08198,-0.1280334 -0.18457,-0.1362305 z m -9.8979495,0.647461 c 0.04894,0 0.098697,0.00686 0.140625,0.027832 0.09087,0.03499 0.1671676,0.1112147 0.2021485,0.2021484 0.041929,0.09087 0.041929,0.1962323 0,0.2871094 -0.03499,0.09087 -0.1112146,0.1671676 -0.2021485,0.2021485 -0.09087,0.03499 -0.1962321,0.041929 -0.2871093,0 -0.09087,-0.03499 -0.1671677,-0.1112146 -0.2021485,-0.2021485 -0.041929,-0.09087 -0.041929,-0.1962322 0,-0.2871094 0.03499,-0.09087 0.1112145,-0.1671675 0.2021485,-0.2021484 0.04894,-0.020965 0.097544,-0.027832 0.1464843,-0.027832 z m 5.3144535,0 c 0.04894,0 0.09754,0.00687 0.146484,0.027832 0.09093,0.034981 0.167158,0.1112784 0.202148,0.2021484 0.04193,0.090877 0.04193,0.1962394 0,0.2871094 -0.03498,0.090934 -0.111278,0.1671584 -0.202148,0.2021485 -0.09088,0.041929 -0.196239,0.03499 -0.287109,0 C 11.425672,8.5255175 11.349443,8.44922 11.314454,8.35835 c -0.04193,-0.090877 -0.04193,-0.1962394 0,-0.2871094 0.03498,-0.090934 0.111278,-0.1671584 0.202148,-0.2021484 0.04193,-0.020967 0.09169,-0.027832 0.140625,-0.027832 z m -7.4179691,0.524414 h 0.020508 c 0.09087,0 0.1820538,0.033788 0.2519531,0.09668 0.076918,0.069905 0.1186524,0.1613854 0.1186524,0.2592773 0.00701,0.097882 -0.028238,0.1952167 -0.098145,0.2651368 C 4.4623212,9.0636858 4.3723061,9.1068852 4.2744142,9.1068852 4.1695189,9.1138979 4.0774195,9.0786456 4.0004884,9.0087406 3.9305836,8.9458485 3.8888488,8.8546624 3.881836,8.7567875 3.874826,8.6589055 3.910075,8.5612575 3.979981,8.4843266 4.049886,8.4074086 4.1413664,8.3656743 4.2392579,8.3656742 Z m 9.5009761,0 h 0.02051 c 0.09789,0 0.189368,0.041734 0.259277,0.1186524 0.0699,0.076931 0.10514,0.1745789 0.09815,0.2724609 -0.007,0.097875 -0.04875,0.1890613 -0.118652,0.2519531 -0.07693,0.069906 -0.167567,0.1051552 -0.272461,0.098145 -0.09789,0 -0.189366,-0.043199 -0.259278,-0.1201172 -0.0699,-0.06992 -0.105148,-0.1672547 -0.09814,-0.2651368 0,-0.097892 0.04173,-0.1893723 0.118652,-0.2592773 0.0699,-0.062892 0.161083,-0.09668 0.251953,-0.09668 z M 9.0761716,9.5404789 c -0.025988,0.10609 -0.057464,0.2109222 -0.09668,0.3149415 -0.09816,0.2602816 -0.2903433,0.6160246 -0.6459955,0.8334956 -0.1383113,0.08448 -0.2241308,-0.069 -0.3046875,-0.153808 C 7.8015533,10.296231 7.5748951,10.05788 7.3476563,9.8187992 c 0.062012,0.4053198 0.091214,0.8146448 0.087891,1.2246098 -9.358e-4,0.108605 -0.1143041,0.184831 -0.2153321,0.145019 -0.2084875,-0.08203 -0.3690917,-0.252182 -0.4541015,-0.454101 -0.085143,0.202055 -0.125424,0.422071 -0.1142579,0.641601 0.015824,0.308197 0.1347144,0.610801 0.3295899,0.84961 h 0.6811524 c -0.086404,-0.356521 0.020483,-0.728495 0.3061523,-1.028321 0.040279,-0.04234 0.1018402,-0.0587 0.1582035,-0.04248 0.056362,0.01622 0.098032,0.06269 0.109863,0.120117 0.018278,0.0894 0.054824,0.17666 0.1069335,0.259278 0.054432,-0.400845 0.3255562,-0.784316 0.7514647,-1.022461 0.056497,-0.03144 0.1271978,-0.02643 0.177246,0.01465 0.050052,0.04108 0.069811,0.109839 0.049805,0.171387 -0.094648,0.292117 -0.094986,0.604965 -0.00293,0.899414 0.2167403,-0.151075 0.4993785,-0.244251 0.7954102,-0.256348 0.08069,-0.0035 0.151298,0.05481 0.162598,0.134766 0.0113,0.08009 -0.04009,0.15644 -0.118652,0.175781 -0.08893,0.02187 -0.134261,0.09105 -0.139161,0.146484 -0.0069,0.08183 0.0391,0.180012 0.0835,0.275391 0.0238,0.05098 0.04652,0.10276 0.06885,0.152344 h 0.849609 c 0.191894,-0.235287 0.30899,-0.525682 0.329591,-0.824707 0.01555,-0.227256 -0.02446,-0.457132 -0.112794,-0.666504 -0.0848,0.201937 -0.247061,0.372082 -0.455566,0.454101 -0.101099,0.03981 -0.214534,-0.03642 -0.215332,-0.145019 -0.0034,-0.409897 0.02721,-0.819375 0.08936,-1.2246096 -0.257043,0.2703896 -0.51369,0.5411356 -0.7705182,0.8115246 -0.091865,0.09657 -0.282504,0.118489 -0.3134767,-0.04834 C 9.5264386,10.331876 9.3919936,10.101139 9.2504881,9.8568852 9.1905301,9.7531944 9.1308061,9.648153 9.0761716,9.5404789 Z M 1.913086,9.8085454 C 1.6534592,9.8423016 1.4703614,10.079315 1.5043946,10.338819 l 0.4731446,3.634277 c 0.030759,0.236037 0.2320856,0.413086 0.4702148,0.413086 H 2.7700196 L 1.8164063,16.442823 H 2.5078126 L 3.4614259,14.386182 H 4.725586 l 0.8408203,2.056641 H 6.244629 L 5.4038087,14.386182 h 0.3632812 c 0.2618457,0 0.4731446,-0.211302 0.4731446,-0.473144 0,-0.261846 -0.2113022,-0.47461 -0.4731446,-0.47461 H 4.8281251 4.8266603 3.881836 l 0.4204102,-0.946289 h 1.2275391 c 0.1303338,0 0.2373046,-0.105372 0.2373046,-0.23584 0,-0.130333 -0.1068373,-0.237304 -0.2373046,-0.237304 H 2.6850587 2.6791993 L 2.4433595,10.217237 C 2.4096032,9.9574764 2.1729832,9.7738781 1.913086,9.8085454 Z m 14.173828,0 c -0.260151,-0.034407 -0.496506,0.148931 -0.530273,0.4086916 l -0.23584,1.801758 h -0.0059 -2.844727 c -0.130334,0 -0.237305,0.106837 -0.237305,0.237304 0,0.130334 0.106837,0.23584 0.237305,0.23584 h 1.227539 l 0.42041,0.946289 H 12.23291 c -0.261845,0 -0.473145,0.212767 -0.473144,0.47461 0,0.261846 0.211302,0.473144 0.473144,0.473144 h 0.363282 l -0.836426,2.056641 h 0.678222 l 0.836426,-2.056641 h 1.264161 l 0.953613,2.056641 h 0.691406 l -0.953613,-2.056641 h 0.322265 c 0.238123,0 0.439318,-0.176922 0.470215,-0.413086 l 0.473145,-3.634277 C 16.529362,10.079192 16.346541,9.8423116 16.086914,9.8085454 Z M 8.9399416,11.021436 c -0.2475788,0.255892 -0.3515955,0.587204 -0.2578125,0.886231 0.020272,0.06468 -0.00369,0.134636 -0.058594,0.174316 -0.054895,0.03968 -0.1282042,0.03968 -0.1831057,0 -0.1744056,-0.125556 -0.3113743,-0.279352 -0.4028316,-0.448242 -0.099433,0.189175 -0.1165987,0.39459 -0.046875,0.591797 h 1.8354488 c -0.00286,-0.0062 -0.006,-0.01286 -0.00879,-0.01904 -0.056029,-0.120247 -0.1253505,-0.270825 -0.111327,-0.436524 7.32e-4,-0.0091 -0.25164,0.10377 -0.3369135,0.196289 -0.03556,0.03855 -0.087383,0.05764 -0.1391603,0.0498 -0.051776,-0.008 -0.096452,-0.04183 -0.1186522,-0.08936 C 8.9759348,11.638965 8.9180738,11.32817 8.9399416,11.021436 Z M 2.7407228,12.492139 H 3.6108399 L 3.1904297,13.438428 H 2.8637696 Z m 11.6484372,0 h 0.870117 l -0.124511,0.946289 h -0.325195 z m -7.8793943,0.04687 c 0.037944,0.598987 0.2917354,1.156858 0.7236328,1.584962 0.180855,0.178931 0.3874498,0.330327 0.6137698,0.446777 0.2485073,0.127942 0.5151833,0.21307 0.79248,0.251953 0.2327685,0.03243 0.4703565,0.03257 0.703125,0 0.2829465,-0.03968 0.5542313,-0.126945 0.8071287,-0.259278 0.220534,-0.110327 0.424256,-0.265046 0.599121,-0.437988 0.432494,-0.428767 0.685884,-0.987439 0.723633,-1.586426 z m 4.2817383,1.973145 c -0.108812,0.09333 -0.228667,0.175383 -0.351562,0.249023 l 0.916992,1.574707 c 0.03842,0.06574 0.110199,0.106934 0.1875,0.106934 0.03782,0 0.07537,-0.01042 0.108398,-0.0293 0.04859,-0.02785 0.08286,-0.07147 0.09815,-0.124512 5.01e-4,-0.0012 0.0011,-0.0031 0.0015,-0.0044 2.67e-4,-9e-4 -1.36e-4,-0.0021 0,-0.0029 0.01369,-0.05364 0.006,-0.108688 -0.02197,-0.156738 z m -3.5874023,0.01172 -0.9316407,1.601074 c -0.028444,0.04879 -0.036463,0.105238 -0.021973,0.159668 0.014756,0.0549 0.051158,0.100396 0.1010742,0.128906 0.033099,0.01908 0.070779,0.0293 0.1083984,0.0293 0.077304,0 0.1492821,-0.04113 0.1875,-0.106934 L 7.5585938,14.771436 C 7.4349101,14.698254 7.3154324,14.615138 7.2041017,14.523878 Z m 1.5717774,0.629882 v 1.054688 c 0,0.117249 0.096353,0.213867 0.2153317,0.213867 0.1189793,0 0.2153325,-0.09662 0.2153325,-0.213867 v -1.054688 c -0.14349,0.01083 -0.2871645,0.01083 -0.4306642,0 z"
     id="path4536"
     inkscape:connector-curvature="0" />
</svg>
