<svg width="24" height="24" version="1.1" viewBox="0 0 24 24" >
 <path d="m11 3v10h2v-10h-2zm-3.5605 2.4395c-2.08 1.44-3.4395 3.8405-3.4395 6.5605a8 8 0 0 0 8 8 8 8 0 0 0 2-0.26562v-2.084a6 6 0 0 1-2 0.34961 6 6 0 0 1-6-6c0-2.17 1.1609-4.0591 2.8809-5.1191l-1.4414-1.4414zm9.1211 0-1.4512 1.4512c1.1685 0.70922 2.0666 1.8063 2.5332 3.1094h1.6914c0.14521 0 0.28476 0.018907 0.42383 0.039062-0.47853-1.8941-1.6346-3.5178-3.1973-4.5996zm-1.5605 5.5605v2h4v2h-2c-1.1046 0-2 0.89543-2 2v4h6v-2h-4v-2h2c1.1046 0 2-0.89543 2-2v-2c0-1.11-0.9-2-2-2h-4z"/>
</svg>
