<svg width="44" height="44" fill="none" version="1.1" viewBox="0 0 44 44" xml:space="preserve" xmlns="http://www.w3.org/2000/svg"><path d="m22.002 0c12.149 0 21.998 9.8502 21.998 22.001 0 12.15-9.8493 21.999-21.998 21.999-12.151 0-22.002-9.8488-22.002-21.999 0-12.151 9.8507-22.001 22.002-22.001zm1.3754 1.7927c-0.5255 0.39097-1.5323 0.69491-1.858 0.90655-0.6487 0.42856-1.2408 0.93755-1.8704 1.4564-0.8255 0.68173-1.7491 1.2685-2.6722 1.8573 0.7319 0.07977 1.4624 0.6481 1.3773 1.3786 0.6039-0.23208 1.1433-0.72261 1.7096-1.0879 0.3976-0.25449 0.5222-0.27691 0.6125-0.67447 0.0751-0.33296-0.0356-0.70745 0.0633-1.0503 0.3105-0.01648 0.6705 0.04351 0.983-0.0092 0.2881-0.04945 0.6415-0.35537 0.9243-0.26505 0.3791 0.11802 0.2242 0.40153 0.3824 0.74239 0.1761 0.37713 0.478 0.42724 0.7952 0.66195 0.5498 0.41076 0.952 0.56306 1.6172 0.33362 0.7582-0.26175 1.1334-1.0173 1.9028-0.53537-0.0198 0.59668 0.5288 0.67316 0.7391 1.1116 0.1589 0.33031 0.0699 0.95073 0.0507 1.318-0.1753-0.02901-0.3988 0.0501-0.5742 0.02175-0.0666 0.12264-0.089 0.23274-0.0666 0.37515 0.3679 0 0.6857 0.09363 0.8907 0.40746-0.0257 0.10681-0.0343 0.20505-0.0415 0.29603 2.0102 1.5316 2.7097 3.6493 2.9814 5.0022 0.1582 0.7939 0.2472 2.2338 0.2953 3.8056 0.0851-0.0989 0.1945-0.1774 0.3-0.2308l0.1312 0.1992c0.0514 0.0263 0.0923 0.2083 0.0567 0.4536-0.1384 0.0244-0.3158 0.0309-0.4747 0.0191 0.0086 0.3521 0.0158 0.7107 0.0204 1.0654 0.0772-0.0883 0.2031-0.1285 0.3976-0.0797l0.1332 0.2643c-0.0013 1.1591-0.3448 0.9877-0.5202 0.5822 0.0233 2.2317-0.0092 4.2387-0.0105 4.5644l-1e-4 0.0179c0 0.5307-1.0575 0.8617-0.9909 1.2586 0.1312 0.7945 0.331 4.4372 0.331 5.8943 0 1.4564-3.5781 6.688-3.8411 7.1502-0.2644 0.4642-0.8617 0-0.8617 0-0.5954-5.2297-0.9264-15.693-0.7286-16.024 0.1978-0.3309 4.0409-0.9276 4.1715-1.1267 0.1338-0.1985 0-3.112-0.3969-3.1786-0.3976-0.0666-5.5633 1.258-5.6279 1.5896-0.0666 0.331 0.3976 1.8547 0.3976 1.8547 0.7938 1.9192 0.6619 2.9801 0.6619 2.9801-0.5953 0.3969-2.3187 1.9865-2.3187 1.9865-0.331-0.2657-2.3188-1.6562-2.5832-1.7887-0.2644-0.1332-0.1978-0.4629-0.1978-0.4629 0.662-1.4564 1.3918-4.1068 1.194-4.6363-0.2011-0.5294-5.4979-1.9205-5.8955-1.4564-0.3956 0.4628-0.1312 3.2452 0.0666 3.5095 0.1985 0.2651 3.9057 0.4635 4.1055 0.7292 0.1984 0.2651 0.0653 15.893 0.0653 15.893s-0.5288 0.7951-0.925 0.5954c-1.6483-0.8228-4.4398-6.4897-4.4398-7.1509v-4.6363c0-0.3778-0.1385-0.7563-0.302-1.0846-0.0039 0.3197-0.0257 0.6593-0.0257 0.952 0 0.687-0.1437 1.1584-0.8617 1.2587-0.7199 0.1002-0.5973-0.993-1.2764 0.5261-0.5103 1.1406-1.1432 2.2338-1.705 3.379-0.25054 0.5129-0.36987 1.0278-0.5848 1.5243-0.23076 0.5341-0.58019 0.8954-0.93555 1.3905-0.14967 0.2051-0.32241 0.4596-0.47075 0.7015 0.1879 0.1846 0.3791 0.3633 0.5703 0.5413 1.0608-0.323 2.1665-2e-3 2.15 1.3411-0.0039 0.145-0.0138 0.2643-0.0343 0.3665 3.2933 2.3175 7.3045 3.681 11.636 3.681 1.0133 0 2.0102-0.0771 2.9826-0.2202-0.1674-0.0719-0.2868-0.1998-0.29-0.4404-0.215-0.0389-0.4167-0.1115-0.6416-0.0851-0.1279-0.8044 0.7233-0.4951 1.0477-0.2565 0.1892 0.1418 0.5564 0.3857 0.8004 0.6244 6.1763-1.2039 11.347-5.2178 14.135-10.654-1.0358 0.0976-2.1961-0.2446-2.8818-0.8966-0.4589-0.4345-0.3244-1.0022-0.1978-1.5929 0.1668-0.78 0.3053-0.7497 1.1175-0.8011-0.1279-0.4213-0.1925-1.1551 0.4622-0.9942-0.0936-0.958 0.5808-1.6516 0.8703-0.453 0.0494 0.2077-0.0528 0.3982 0.06 0.5828 0.1074 0.1748 0.4384 0.1299 0.5393 0.3429 0.1688 0.3547-0.0976 0.9487-0.4437 1.0061-0.0706 0.3897 0.3909 0.7285 0.5716 1.0338 0.1259 0.2169 0.271 0.5136 0.3718 0.7945 0.0238-0.0561 0.0515-0.1128 0.0765-0.1688-0.0356-0.7338-0.1292-1.4208-0.1688-2.1342-0.027-0.4879-0.1312-0.9059-0.2129-1.3246-0.0943-0.4806-0.2717-0.747-0.3877-1.1426-0.1345-0.4602 0.0138-1.0918-0.0086-1.5685-0.029-0.5169-0.1701-0.8999-0.1997-1.4056-0.0521-0.8868 0.0975-1.7663 0.0277-2.6221-0.1504 0.0666-0.2967 0.0897-0.4147-0.0257-0.2051-0.1972-0.0752-0.4536 0.1107-0.5314 0.0277-0.5361 0.2288-2.032-0.5736-1.9186-0.027-0.513-0.0745-0.9475-0.1496-1.4321-0.0686-0.0784-0.2051-0.2017-0.2697-0.2703-0.7424-0.0369-1.674 0.2301-2.0307-0.4872-0.2076-0.4193-0.2525-1.3101 2e-3 -1.7123 0.1859-0.2953 0.5855-0.2868 0.7319-0.5281 0.147-0.2406 0.085-0.4246 0.118-0.7265 0.029-0.2657-0.3297-0.5262 0.1958-0.4635 0.3244 0.0382 0.2901 0.5221 0.7186 0.4536-0.0224-0.1082 0.0376-0.2657 0.0185-0.3772 0.3006-0.0138 1.0648 0.2262 1.6008 0.2605-0.1009-0.1807-0.2011-0.3594-0.3092-0.5367-0.4022-0.1213-0.8031-0.2552-1.0457-0.453-0.5868-0.4799-0.2097-1.1056-0.6362-1.5494-0.5802-0.60393-0.7562 0.04549-0.6791 0.54725 0.0494 0.3395 0.5663 1.3582-0.2525 1.1155-0.0244-0.4727 0.0033-0.9626-0.0191-1.434-0.6587-0.04351-0.9283-0.82941-0.8413-1.3931 0.2321-0.0072 0.4767-0.01318 0.7081-0.01978 0.0329-0.10417 0.0329-0.30526 0.0039-0.42064-0.0072-0.0092-0.0145-0.01648-0.0224-0.02307-0.2274-0.0066-0.4641-0.01385-0.6896-0.01847-0.0132 0.01253 0-0.18065 0-0.18065 0.2459-0.03099 0.2802-0.04153 0.2954-0.20043-0.0429-0.04615-0.0904-0.08967-0.1385-0.13384-0.2301-0.0059-0.4622-0.0046-0.6877-0.01582 0.0073-0.18593 0.0614-0.35208 0.1167-0.51823-3.2629-2.9142-7.4725-4.7853-12.112-5.0965zm-7.646 5.0319c-0.6145 0.40944-1.2118 0.83865-1.759 1.3173-0.9613 0.83667-2.1619 1.3931-3.3124 2.0089-0.4265 0.2294-0.8241 0.356-1.1874 0.7233-0.36196 0.3646-0.32768 1.1076-0.91775 1.1215 0.13449 0.5782-0.27691 0.4529-0.67316 0.5202-0.55249 0.0929-0.36459 0.0982-0.65798 0.4008-0.46415 0.4774-0.95929 0.9943-1.3278 1.5224-0.50173 0.7101-0.04417 0.8749 0.13186 1.5204 0.12593 0.4674-0.12197 0.5683-0.26504 0.8445-0.13168 0.2523-0.26394 0.3352-0.32173 0.6534l-0.0014 0.0078 0.0015-0.0125c0.01359-0.1451-0.0091-0.313-0.01739-0.454l-0.0019-0.0377c-0.34811 0.234-0.31053 1.1287-0.85182 1.1887-0.18263 0.0198-1.5065-1.0015-1.3338-0.0145-0.12527 0.0376-0.38636 0.0376-0.51031 0-0.01582-0.2809 0.1945-0.4312 0.19054-0.6514-0.0099-0.4919-0.04549-0.3006-0.33295-0.5314-0.06329-0.0508-0.12329-0.0765-0.18196-0.0963-0.42921 1.6424-0.65997 3.3658-0.65997 5.1433 0 5.2904 2.028 10.106 5.3503 13.713 0.20504-0.7443 0.6026-1.5204 1.0687-2.0017 0.7793-0.8103 1.0292-1.7913 1.5612-2.719 0.27296-0.4734 0.51496-0.7516 0.74366-1.2415 0.2354-0.5136 0.3125-0.9955 0.5084-1.5388 0.1813-0.4925 0.5531-0.7681 0.683-1.2573 0.1259-0.4859 0.4312-0.9158 0.5954-1.3918 0.3388-0.1391 0.5848-0.1688 0.7713-0.1306-0.0567-1.0938-0.1094-5.3371-0.1094-9.7367 0-2.2127 0.9197-4.1471 2.3089-5.6147-0.1299-2e-3 -0.2644-0.0178-0.3791-0.0251-0.05664-0.19977-0.16144-0.37515-0.22014-0.57558-0.2539-0.07582-0.4418-0.0026-0.5321 0.24658-0.7325-0.07977-0.3758-1.0444 0.3343-0.99556 0.205-0.95073 0.2644-0.45163 0.9896-0.83205 0.4846-0.2545 0.2954-0.67646 0.3158-1.074zm18.055 25.41c-0.2321-0.4589 0.0303-1.1182 0.5834-0.9785l0.1978 0.2005c0.3449 0.4285 0.6877 0.5294 0.5868 1.1808-0.474 0.0224-1.1083 0.1042-1.368-0.4028zm7.8784-15.116c-0.3145 0.1694-0.7206 0.3026-0.925 0.6943-0.4912 0.9316 0.0118 1.9917 0.056 2.9768 0.029 0.6177 0.1761 1.0746 0.2644 1.6568 0.0923 0.6119-0.0593 1.256 0.06 1.8566 0.2116 1.0556-0.0257 2.4626 0.3006 3.4634 0.5426-1.8296 0.8374-3.7633 0.8374-5.7677 0-1.6825-0.2084-3.3163-0.5934-4.8802zm-36.225 0.3461-0.0031 0.0264c-0.0019 0.0127-0.0041 0.0253-0.0067 0.0376l0.0053-0.0369zm16.559-15.724c-4.0099 0-7.7449 1.1703-10.89 3.1799 0.1807 0.43581-0.0804 1.0938-0.8993 0.96194-0.0066-0.10549-0.0171-0.22153-0.0217-0.33757-0.42198 0.30197-0.82811 0.61778-1.2204 0.95073 0.20768 0.10022 0.32042 0.29076 0.22878 0.64481-0.51228 0.14241-0.97973 0.79184-0.99357 1.2593-0.52876 0.16615-0.71667-0.09626-0.78787-0.45294-0.99687 1.0338-1.8843 2.1711-2.6451 3.3961 0.37844 0.2987 0.1879 0.3422 0.79512 0.3105 0.46613-0.0244 0.95401 0.1174 1.2764-0.1826 0.3857-0.3646 0.02572-0.8334 0.24197-1.2105 0.31119-0.54063 0.61447-0.0877 0.48327 0.3508-0.11736 0.3942-0.71667 0.5261-0.49646 0.9725 0.0923-0.3422 0.72721-0.782 1.0048-0.9936 0.47602-0.3613 0.96786-0.60199 1.4966-0.97384 0.42855-0.30395 0.90058-0.29406 1.3549-0.60723 0.4332-0.29933 0.7575-0.55185 1.1979-0.807 0.4827-0.28285 0.9402-0.72788 1.4499-0.98567 0.5584-0.28087 1.0825-0.25252 1.5889-0.64218 0.4879-0.37581 0.9896-0.76744 1.3944-1.2257 0.4793-0.54657 0.7009-0.71536 1.3219-0.97843 1.0173-0.42921 1.8006-1.105 2.7164-1.7182 0.4832-0.3224 0.983-0.41537 1.4662-0.74305 0.0851-0.05802 0.1603-0.11208 0.2301-0.16153-0.0989-0.0013-0.1945-0.0066-0.2933-0.0066z" clip-rule="evenodd" fill="#fff" fill-rule="evenodd" style="fill:#000"/></svg>
