<?xml version="1.0" encoding="UTF-8" standalone="no"?>
<svg
   xmlns:dc="http://purl.org/dc/elements/1.1/"
   xmlns:cc="http://creativecommons.org/ns#"
   xmlns:rdf="http://www.w3.org/1999/02/22-rdf-syntax-ns#"
   xmlns:svg="http://www.w3.org/2000/svg"
   xmlns="http://www.w3.org/2000/svg"
   xmlns:sodipodi="http://sodipodi.sourceforge.net/DTD/sodipodi-0.dtd"
   xmlns:inkscape="http://www.inkscape.org/namespaces/inkscape"
   version="1.1"
   width="24"
   height="24"
   viewBox="0 0 24 24"
   id="svg4"
   sodipodi:docname="speaker-bluetooth-alexa.svg"
   inkscape:version="0.92.4 (5da689c313, 2019-01-14)">
  <metadata
     id="metadata10">
    <rdf:RDF>
      <cc:Work
         rdf:about="">
        <dc:format>image/svg+xml</dc:format>
        <dc:type
           rdf:resource="http://purl.org/dc/dcmitype/StillImage" />
        <dc:title></dc:title>
      </cc:Work>
    </rdf:RDF>
  </metadata>
  <defs
     id="defs8" />
  <sodipodi:namedview
     pagecolor="#ffffff"
     bordercolor="#666666"
     borderopacity="1"
     objecttolerance="10"
     gridtolerance="10"
     guidetolerance="10"
     inkscape:pageopacity="0"
     inkscape:pageshadow="2"
     inkscape:window-width="1920"
     inkscape:window-height="1017"
     id="namedview6"
     showgrid="false"
     inkscape:zoom="13.906433"
     inkscape:cx="33.398133"
     inkscape:cy="6.147865"
     inkscape:window-x="1912"
     inkscape:window-y="-8"
     inkscape:window-maximized="1"
     inkscape:current-layer="svg4" />
  <path
     id="path1388"
     style="stroke-width:0.5625"
     d="M 16.375,6.375 A 5.625,5.625 0 0 0 10.75,12 5.625,5.625 0 0 0 16.375,17.625 5.625,5.625 0 0 0 22,12 5.625,5.625 0 0 0 16.375,6.375 m -0.883125,11.176875 v -1.1025 c 0,-0.388125 -0.241875,-0.75375 -0.6075,-0.905625 -1.3725,-0.585 -2.35125,-1.951875 -2.35125,-3.54375 0,-2.10375 1.715625,-3.841875 3.841875,-3.841875 2.12625,0 3.841875,1.738125 3.841875,3.841875 0,2.491875 -1.935,4.843125 -4.725,5.551875 z M 5.75,12.625 A 1.25,1.25 0 0 0 4.5,13.875 1.25,1.25 0 0 0 5.75,15.125 1.25,1.25 0 0 0 7,13.875 1.25,1.25 0 0 0 5.75,12.625 M 3.25,6.375 A 1.25,1.25 0 0 0 2,7.625 v 8.75 a 1.25,1.25 0 0 0 1.25,1.25 h 5 A 1.25,1.25 0 0 0 9.5,16.375 V 7.625 A 1.25,1.25 0 0 0 8.25,6.375 Z m 2.5,1.25 A 1.25,1.25 0 0 1 7,8.875 1.25,1.25 0 0 1 5.75,10.125 1.25,1.25 0 0 1 4.5,8.875 1.25,1.25 0 0 1 5.75,7.625 Z m 0,3.75 a 2.5,2.5 0 0 1 2.5,2.5 2.5,2.5 0 0 1 -2.5,2.5 2.5,2.5 0 0 1 -2.5,-2.5 2.5,2.5 0 0 1 2.5,-2.5 z m 10.515747,-2.5 v 2.368164 L 14.835083,9.8125 14.390747,10.256835 16.133911,12 14.390747,13.743164 14.835083,14.1875 16.265747,12.756836 V 15.125 h 0.3125 L 18.359253,13.337891 17.022583,12 18.359253,10.656005 16.578247,8.875 Z m 0.625,1.193847 0.587158,0.587158 -0.587158,0.587159 z m 0,2.687989 0.587158,0.581055 -0.587158,0.587158 z"
     inkscape:connector-curvature="0" />
</svg>
