<?xml version="1.0" encoding="UTF-8" standalone="no"?>
<svg
   xmlns:dc="http://purl.org/dc/elements/1.1/"
   xmlns:cc="http://creativecommons.org/ns#"
   xmlns:rdf="http://www.w3.org/1999/02/22-rdf-syntax-ns#"
   xmlns:svg="http://www.w3.org/2000/svg"
   xmlns="http://www.w3.org/2000/svg"
   xmlns:sodipodi="http://sodipodi.sourceforge.net/DTD/sodipodi-0.dtd"
   xmlns:inkscape="http://www.inkscape.org/namespaces/inkscape"
   width="24"
   height="24"
   version="1.1"
   viewBox="0 0 18 18"
   id="svg4"
   sodipodi:docname="tan.svg"
   inkscape:version="0.92.4 (5da689c313, 2019-01-14)">
  <metadata
     id="metadata10">
    <rdf:RDF>
      <cc:Work
         rdf:about="">
        <dc:format>image/svg+xml</dc:format>
        <dc:type
           rdf:resource="http://purl.org/dc/dcmitype/StillImage" />
        <dc:title></dc:title>
      </cc:Work>
    </rdf:RDF>
  </metadata>
  <defs
     id="defs8" />
  <sodipodi:namedview
     pagecolor="#ffffff"
     bordercolor="#666666"
     borderopacity="1"
     objecttolerance="10"
     gridtolerance="10"
     guidetolerance="10"
     inkscape:pageopacity="0"
     inkscape:pageshadow="2"
     inkscape:window-width="1920"
     inkscape:window-height="1017"
     id="namedview6"
     showgrid="false"
     units="px"
     inkscape:zoom="15.06383"
     inkscape:cx="23.064211"
     inkscape:cy="11.379894"
     inkscape:window-x="1912"
     inkscape:window-y="-8"
     inkscape:window-maximized="1"
     inkscape:current-layer="svg4" />
  <path
     d="m 13.039449,3.8972113 c 0.23815,-0.23814 0.23815,-0.60314 0,-0.8413 -0.23814,-0.23814 -0.60314,-0.23814 -0.8413,0 l -0.92063,0.92063 0.8413,0.8413 z m -3.4125201,-1.96812 c 0,-0.33331 -0.26982,-0.5872801 -0.58729,-0.5872801 -0.33332,0 -0.58728,0.2698201 -0.58728,0.5872801 v 1.30147 h 1.19046 v -1.30147 z m 2.8569101,5.3966275 h 1.30146 c 0.33332,0 0.58729,-0.26983 0.58729,-0.58729 0,-0.3333205 -0.26983,-0.5872905 -0.58729,-0.5872905 h -1.30146 z m -3.4601201,2.33323 c 1.6189601,0 2.9205601,-1.31745 2.9205601,-2.92055 0,-1.6030975 -1.31746,-2.9205475 -2.9205601,-2.9205475 -1.61895,0 -2.9205504,1.31745 -2.9205504,2.9205475 0,1.6031 1.3014704,2.92055 2.9205504,2.92055 z m 2.2537701,-0.19049 0.92063,0.9206302 c 0.23814,0.23814 0.60314,0.23814 0.8413,0 0.23816,-0.23814 0.23814,-0.6031402 0,-0.8413002 l -0.92063,-0.92063 z M 8.4205789,11.516039 c 0,0.33332 0.26983,0.58729 0.58729,0.58729 0.33332,0 0.58729,-0.26983 0.58729,-0.58729 v -1.30146 h -1.19046 l -1.3e-4,1.30146 z M 4.2301685,7.3256288 h 1.30147 V 6.1351683 h -1.30147 c -0.33331,0 -0.58728,0.26982 -0.58728,0.5872905 -0.0158,0.33332 0.25398,0.60314 0.58728,0.60314 z m 1.69829,-2.5077375 0.8413004,-0.8413 -0.9206304,-0.92063 c -0.23814,-0.23815 -0.60314,-0.23815 -0.8413,0 -0.23816,0.23814 -0.23814,0.60314 0,0.8413 z m -0.9205,4.7296675 c -0.23814,0.23814 -0.23814,0.6031402 0,0.8413002 0.23814,0.23814 0.60314,0.23814 0.8413,0 L 6.7698889,9.4682288 5.9285885,8.6269288 Z M 15.927899,15.896349 h -0.71428 l -2.53955,-2.76172 c -0.22217,-0.22217 -0.58729,-0.22217 -0.80946,0 l -1.8887501,1.88875 c -0.0317,0.0317 -0.0477,0.0477 -0.0793,0.0635 v -0.0158 l -2.63487,-0.25398 c -0.19048,-0.30151 -0.50795,-0.49201 -0.8888204,-0.49201 -0.44448,0 -0.82531,0.28567 -0.98411,0.68247 -0.12699,0.26983 -0.38097,0.36502 -0.96815,0.36502 h -0.0477 c -0.20632,-0.57147 -0.74598,-0.99996 -1.39678,-0.99996 -0.80946,0 -1.47611,0.66665 -1.47611,1.47611 0,0.30151 0.0952,0.57147 0.23814,0.80946 h 9.1741305 c 0.44448,0 0.77779,-0.30151 0.93645,-0.69832 l 0.58728,-1.47611 0.57147,0.58728 1.4126,1.42846 c 0.11115,0.11115 0.25398,0.15867 0.39682,0.15867 h 0.0158 1.66662 v -0.19049 c 0.0157,-0.3015 -0.25412,-0.57133 -0.57147,-0.57133 z"
     id="path2"
     inkscape:connector-curvature="0"
     style="stroke-width:0.03351523" />
</svg>
