<?xml version="1.0" encoding="UTF-8" standalone="no"?>
<!-- Created with Inkscape (http://www.inkscape.org/) -->

<svg
   xmlns:dc="http://purl.org/dc/elements/1.1/"
   xmlns:cc="http://creativecommons.org/ns#"
   xmlns:rdf="http://www.w3.org/1999/02/22-rdf-syntax-ns#"
   xmlns:svg="http://www.w3.org/2000/svg"
   xmlns="http://www.w3.org/2000/svg"
   xmlns:sodipodi="http://sodipodi.sourceforge.net/DTD/sodipodi-0.dtd"
   xmlns:inkscape="http://www.inkscape.org/namespaces/inkscape"
   width="1200"
   height="800"
   id="svg1881"
   sodipodi:version="0.32"
   inkscape:version="0.92.3 (2405546, 2018-03-11)"
   version="1.0"
   sodipodi:docname="Logitech_logo.svg"
   inkscape:export-filename="C:\Users\Petro\Desktop\Logitech_logo.png"
   inkscape:export-xdpi="96"
   inkscape:export-ydpi="96">
  <defs
     id="defs1883">
    <metadata
       id="CorelCorpID_0Corel-Layer" />
  </defs>
  <sodipodi:namedview
     id="base"
     pagecolor="#ffffff"
     bordercolor="#666666"
     borderopacity="1.0"
     inkscape:pageopacity="0.0"
     inkscape:pageshadow="2"
     inkscape:zoom="0.35"
     inkscape:cx="-77.142857"
     inkscape:cy="520"
     inkscape:document-units="px"
     inkscape:current-layer="layer1"
     inkscape:window-width="1920"
     inkscape:window-height="1137"
     inkscape:window-x="-8"
     inkscape:window-y="-8"
     showgrid="false"
     inkscape:window-maximized="1" />
  <metadata
     id="metadata1886">
    <rdf:RDF>
      <cc:Work
         rdf:about="">
        <dc:format>image/svg+xml</dc:format>
        <dc:type
           rdf:resource="http://purl.org/dc/dcmitype/StillImage" />
        <dc:title></dc:title>
      </cc:Work>
    </rdf:RDF>
  </metadata>
  <g
     inkscape:label="Ebene 1"
     inkscape:groupmode="layer"
     id="layer1"
     transform="translate(-259.4607,132.36819)">
    <g
       id="g1906"
       transform="translate(338.68051,-163.3018)">
      <path
         d="m 730.70019,556.52097 c 0.97884,0 1.78345,-0.31549 3.90084,-1.29402 6.8301,-2.93861 12.3589,-4.08441 18.54167,-4.08441 17.72767,0 28.95699,10.74963 28.95699,28.1618 v 52.2136 c 0,1.31305 -1.13614,2.44919 -2.43952,2.44919 H 769.2517 c -1.30341,0 -2.43983,-1.13614 -2.43983,-2.44919 v -51.88865 c 0,-11.72123 -6.02516,-17.24761 -18.87347,-17.24761 -4.07475,0 -7.48617,0.64671 -11.06454,1.94074 -4.87242,1.80219 -6.66525,4.06781 -6.66525,8.62502 v 58.57048 c 0,1.31305 -0.97884,2.44919 -2.43983,2.44919 h -10.25781 c -1.30341,0 -2.42324,-1.13614 -2.42324,-2.44919 V 522.51729 c 0,-1.29403 1.11983,-2.4329 2.42324,-2.4329 h 10.25781 c 1.46099,0 2.43983,1.13885 2.43983,2.4329 v 33.83886 l 0.49153,0.16485 z M 582.2235,595.27208 c 0,16.7419 10.57543,27.97159 26.51023,27.97159 5.703,0 13.17982,-2.28222 19.67808,-6.01822 l 1.30341,-0.64703 c 0.65638,-0.49666 1.63491,-0.65426 2.11737,-0.65426 1.29403,0 2.28194,1.13644 2.28194,2.58808 v 6.35939 c 0,2.59744 -0.48911,3.24446 -3.57839,4.5548 -6.99706,3.25382 -16.09941,5.22055 -24.2354,5.22055 -24.07733,0 -39.21496,-15.96051 -39.21496,-41.17475 0,-26.3526 14.14928,-42.94389 36.7682,-42.94389 21.15569,0 34.98254,14.64112 34.98254,36.9256 v 4.39266 c 0,1.30099 -0.97884,2.43953 -2.44919,2.43953 h -54.16392 v 0.98579 z m 41.48296,-14.00075 c 0,-11.55426 -8.29109,-19.52048 -20.50143,-19.52048 -12.04126,0 -20.82388,8.7802 -20.98149,21.14846 h 41.48297 c 0,-0.64943 0,-1.30341 0,-1.62796 z m 82.87413,36.4197 c 1.14549,0 2.12433,1.13644 2.12433,2.92925 v 6.50764 c 0,1.95977 -0.48942,2.7644 -2.12433,3.57839 -5.52911,2.76198 -14.96569,4.5548 -23.41446,4.5548 -25.53847,0 -40.68513,-15.44544 -40.68513,-41.80504 0,-26.19519 16.27604,-42.3136 42.79331,-42.3136 6.98768,0 13.97749,1.31277 20.49207,4.08441 2.29158,0.79737 2.93861,1.62556 2.93861,3.08655 v 7.64406 c 0,1.62796 -0.81399,2.75747 -2.12434,2.75747 -0.81427,0 -1.13642,-0.1413 -2.59743,-0.97188 -6.83221,-3.74294 -12.20129,-5.20393 -19.03108,-5.20393 -16.91611,0 -26.5197,10.90453 -26.5197,30.25325 0,19.6947 9.92601,31.08168 26.84178,31.08168 6.01822,0 12.20129,-1.62587 18.05255,-4.87967 l 0.82092,-0.31521 c 0.9716,-0.66332 1.78587,-0.98819 2.4329,-0.98819 z M 515.85833,563.21185 c -1.31035,0 -2.43953,-1.13856 -2.43953,-2.43953 v -6.50068 c 0,-1.31034 1.12918,-2.44679 2.43953,-2.44679 h 8.95683 v -19.19108 c 0,-1.30341 0.96948,-2.44679 2.43047,-2.44679 h 10.24122 c 1.3034,0 2.44918,1.14338 2.44918,2.44679 v 19.19108 h 23.42348 c 1.29403,0 2.43048,1.13645 2.43048,2.44679 v 6.50068 c 0,1.46795 -1.13645,2.43953 -2.43048,2.43953 h -23.42348 v 47.18357 c 0,8.94023 3.58564,12.8483 11.71188,12.8483 2.92894,0 5.85095,-0.64007 8.29078,-1.95042 l 1.80218,-0.97883 c 0.80461,-0.32457 1.46099,-0.48218 1.94106,-0.48218 1.30338,0 2.10801,0.96224 2.10801,2.60648 v 5.85126 c 0,1.61862 -0.31521,2.27498 -1.78347,2.92201 -4.06781,2.12464 -11.06484,3.43496 -16.92304,3.43496 -14.14446,0 -22.26834,-7.66731 -22.26834,-20.83082 v -50.60429 h -8.95683 z m -28.50987,68.30603 v -76.6227 c 0,-1.30341 1.13645,-2.43983 2.43259,-2.43983 h 10.25086 c 1.46795,0 2.43983,1.13644 2.43983,2.43983 v 76.6227 c 0,1.31305 -0.97188,2.44918 -2.43983,2.44918 h -10.25086 c -1.29614,0 -2.43259,-1.13613 -2.43259,-2.44918 z m 7.64378,-111.43353 c 6.00886,0 9.10508,3.25382 9.10508,9.11443 0,6.00887 -3.09622,9.10508 -9.27898,9.10508 -6.00886,0 -9.10508,-3.25382 -9.10508,-9.27204 0,-5.53604 3.42079,-8.94747 9.27898,-8.94747 z m -41.24058,109.47616 c -6.01822,3.09621 -11.5446,4.40655 -17.57218,4.40655 -23.2544,0 -38.71852,-16.27603 -38.71852,-40.67831 0,-24.89871 16.60061,-42.14628 40.511,-42.14628 4.88208,0 9.42965,0.83059 13.01526,2.29158 0.97158,0.48218 2.43983,1.30341 4.22539,2.44919 0.98578,0.47282 1.31065,0.63767 2.28918,0.63767 l 0.64008,-0.16485 v -1.1292 c 0,-1.95977 0.82092,-2.77165 2.43983,-2.77165 h 8.62259 c 1.461,0 2.44195,1.13645 2.44195,2.43983 v 80.85534 c 0,20.80968 -13.50439,31.88149 -38.55363,31.88149 -9.26962,0 -20.00961,-1.79281 -27.17354,-4.71481 -3.57628,-1.461 -4.38331,-2.27499 -4.38331,-4.55721 v -6.82283 c 0,-1.6352 0.80704,-2.77134 2.11044,-2.77134 0.65396,0 1.45858,0.32457 2.11526,0.64703 l 2.11739,1.13613 c 6.49797,3.42079 16.26637,5.68672 24.39985,5.68672 7.48617,0 14.15139,-1.60924 18.54166,-4.5572 3.90085,-2.75505 5.70301,-7.14529 5.70301,-15.12088 v -7.81103 c -1.1458,0 -1.31065,0.17421 -2.77165,0.81397 z m -0.1576,-63.43606 c -3.25382,-2.29158 -8.30045,-3.58532 -13.99379,-3.58532 -16.59123,0 -26.19519,11.0718 -26.19519,30.25325 0,18.06884 10.08361,29.77838 25.87024,29.77838 4.88209,0 10.08632,-1.30341 13.66229,-3.0775 2.7644,-1.47731 3.58563,-2.9383 3.58563,-6.19212 V 571.9758 c 0,-3.26075 -0.48942,-4.23266 -2.92925,-5.85126 z M 352.14551,551.14247 c 24.55748,0 39.20792,15.96082 39.20792,42.63568 0,26.51969 -14.80809,42.94389 -38.71852,42.94389 -24.40228,0 -39.53242,-16.42426 -39.53242,-42.79331 0,-26.51727 14.79842,-42.78626 39.04302,-42.78626 z m -16.6006,67.35321 c 3.58563,4.39962 9.60385,6.83945 16.75819,6.83945 15.45269,0 23.10602,-10.41542 23.10602,-31.55698 0,-21.15539 -7.65342,-31.39649 -23.26365,-31.39649 -15.62177,0 -23.09898,10.0836 -23.09898,31.72143 0,12.04338 1.79282,18.70863 6.49829,24.39259 z m -21.26379,3.11281 c 0.97883,0 1.94105,0.99513 1.94105,1.95977 v 7.98284 c 0,0.97159 -0.96222,1.78558 -1.94105,1.78558 h -53.03697 c -0.96947,0 -1.78346,-0.81399 -1.78346,-1.78558 V 526.61799 c 0,-0.98093 0.81399,-1.79281 1.78346,-1.79281 h 12.20098 c 0.97159,0 1.78587,0.81188 1.78587,1.79281 v 94.99039 h 39.05007 z"
         id="path6"
         style="fill:#000000;fill-rule:nonzero"
         inkscape:connector-curvature="0" />
      <g
         transform="matrix(2.201517,0,0,2.201517,256.5991,189.396)"
         id="_225673400">
        <path
           id="_228839536"
           d="m 163.239,27.8153 c 11.5513,-6.09257 20.0152,-14.27 18.9071,-18.2658 -1.1051,-3.99689 -6.07337,-5.61381 -11.0918,-3.60466 -5.01422,2.0027 -13.4739,10.1834 -18.9027,18.2584 -5.42565,8.08334 -0.45957,9.70025 11.0875,3.61207 z"
           style="fill:#e9132e;fill-rule:nonzero"
           inkscape:connector-curvature="0" />
        <path
           id="_226149768"
           d="m 177.961,72.7125 c 6.44297,2.89605 15.1067,2.98587 21.289,0.422126 6.61728,-2.51465 9.19598,-5.9749 4.91698,-7.82592 -4.79945,-1.90752 -19.2693,-2.65783 -29.644,-1.36471 -7.93591,1.56453 -4.71278,5.68114 3.43803,8.7685 z"
           style="fill:#000000;fill-rule:nonzero"
           inkscape:connector-curvature="0" />
        <path
           id="_226699800"
           d="m 162.718,113.365 c 7.23497,8.88603 18.33,17.3243 23.9929,17.9121 4.33563,-0.71273 2.0208,-7.88366 -3.51387,-14.3864 -4.98418,-5.92265 -13.3754,-11.2276 -19.6112,-12.9385 -6.37577,-2.08183 -7.42725,1.32617 -0.86784,9.4128 z"
           style="fill:#000000;fill-rule:nonzero"
           inkscape:connector-curvature="0" />
        <path
           id="_138371256"
           d="m 130.312,86.3679 c -2.76041,-0.101486 -6.21106,-2.55305 -6.66953,-1.50789 -0.96617,2.20155 3.51374,8.67977 9.6779,6.63538 1.42341,-0.47232 3.6816,-1.90011 4.33125,-2.47282 5.70569,-5.02491 -2.97833,-2.08498 -7.33961,-2.65467 z m 7.04901,-28.6789 c -5.39685,0.836846 -15.4701,8.96613 -12.0599,15.2991 0.23287,0.432823 1.53778,2.23255 4.35045,3.04581 6.55954,1.89682 14.1622,0.916937 17.256,-5.17248 0.55035,-1.08466 1.34647,-2.6363 1.04832,-4.40283 -0.74811,-4.42217 -5.81143,-9.38729 -10.5948,-8.7696 z m -13.2665,-1.85513 c -7.79273,1.11237 -11.6496,7.12155 -8.26409,16.0611 0.21806,0.577097 1.00347,0.424183 1.19163,-0.290743 0.81216,-3.08626 1.37746,-5.6747 3.21243,-8.42962 2.28055,-3.42309 5.87657,-4.32919 8.07909,-7.0608 0.82395,-1.02158 -2.76357,-0.487269 -4.21906,-0.279909 z m -6.0059,-8.30907 c 2.56375,-0.799269 3.96466,-1.21509 6.96768,-1.71086 6.12672,-1.01102 21.0839,0.94368 25.5307,3.21134 6.99237,3.56407 13.725,8.77056 12.3014,17.5498 -1.39351,8.59529 -7.67191,13.3243 -13.1126,18.3673 -5.32197,4.93522 -10.817,9.41499 -19.2532,11.5973 -3.65691,0.945737 -11.7821,-0.637029 -14.0883,-4.26405 -0.86784,-1.36361 -1.68645,-2.98162 -2.42482,-4.31314 -1.54423,-2.79031 -1.30807,-3.06816 -4.2672,-4.74597 -3.37495,-1.91506 -6.90789,-4.17531 -8.91278,-7.78217 -1.28983,-2.32224 -3.27977,-9.64471 -1.93755,-12.8625 2.66318,-6.38757 12.5399,-12.9833 19.1967,-15.047 z"
           style="fill:#000000;fill-rule:nonzero"
           inkscape:connector-curvature="0" />
        <path
           id="_226702736"
           d="M 61.9753,21.2408 C 49.0145,34.0361 36.2299,55.3293 40.075,80.2081 c 2.20581,14.8759 10.0168,25.8052 16.7055,33.9529 8.7685,10.1674 22.7254,19.5023 35.0119,17.3456 5.66619,-1.11991 10.0434,-5.75685 12.106,-9.56037 7.92425,-14.6355 -8.2523,-34.097 -10.0808,-40.679 -3.61207,-9.38715 -3.14085,-14.3491 -2.37888,-23.5483 1.20974,-14.5628 11.25,-30.7403 13.7678,-34.8569 2.73367,-4.47127 5.32306,-8.12832 7.34811,-11.5182 0.49371,-0.832457 1.75269,-2.74423 1.24718,-4.74267 -0.64759,-2.5104 -4.05243,-3.80023 -6.92928,-4.17326 -1.14775,-0.145234 -2.24201,-0.21696 -3.29472,-0.229714 h -0.21161 -0.41568 c -3.172941,0.032091 -5.928961,0.570651 -8.405071,1.104 -9.0827,1.95346 -16.1894,5.41385 -21.1352,8.65303 -3.60041,2.35954 -7.56302,5.45445 -11.4348,9.28567 z"
           style="fill:#009b85;fill-rule:nonzero"
           inkscape:connector-curvature="0" />
      </g>
    </g>
  </g>
</svg>
