<?xml version="1.0" encoding="UTF-8" standalone="no"?>
<!-- Generator: Adobe Illustrator 16.2.1, SVG Export Plug-In . SVG Version: 6.00 Build 0)  -->

<svg
   xmlns:dc="http://purl.org/dc/elements/1.1/"
   xmlns:cc="http://creativecommons.org/ns#"
   xmlns:rdf="http://www.w3.org/1999/02/22-rdf-syntax-ns#"
   xmlns:svg="http://www.w3.org/2000/svg"
   xmlns="http://www.w3.org/2000/svg"
   xmlns:sodipodi="http://sodipodi.sourceforge.net/DTD/sodipodi-0.dtd"
   xmlns:inkscape="http://www.inkscape.org/namespaces/inkscape"
   version="1.2"
   id="Layer_1"
   x="0px"
   y="0px"
   width="1200"
   height="800"
   viewBox="0 0 1200 800.00001"
   xml:space="preserve"
   sodipodi:docname="PlayStation_4_logo.svg"
   inkscape:export-filename="C:\Users\Petro\Desktop\PlayStation_4_logo.png"
   inkscape:export-xdpi="96"
   inkscape:export-ydpi="96"
   inkscape:version="0.92.3 (2405546, 2018-03-11)"><metadata
   id="metadata49"><rdf:RDF><cc:Work
       rdf:about=""><dc:format>image/svg+xml</dc:format><dc:type
         rdf:resource="http://purl.org/dc/dcmitype/StillImage" /><dc:title></dc:title></cc:Work></rdf:RDF></metadata><defs
   id="defs47" /><sodipodi:namedview
   pagecolor="#ffffff"
   bordercolor="#666666"
   borderopacity="1"
   objecttolerance="10"
   gridtolerance="10"
   guidetolerance="10"
   inkscape:pageopacity="0"
   inkscape:pageshadow="2"
   inkscape:window-width="1920"
   inkscape:window-height="1137"
   id="namedview45"
   showgrid="false"
   inkscape:zoom="0.39930393"
   inkscape:cx="1381.7131"
   inkscape:cy="470.84406"
   inkscape:window-x="-8"
   inkscape:window-y="-8"
   inkscape:window-maximized="1"
   inkscape:current-layer="g8" />
<rect
   style="fill:#004098;fill-opacity:1;stroke-width:0.67327178"
   id="rect4561"
   width="1200"
   height="800"
   x="0"
   y="0" />
<g
   id="g42"
   transform="matrix(1.9084813,0,0,1.9084813,120.09301,300)">
	<g
   id="g26">
		<g
   id="g8">
			
			<polygon
   points="494.73,82.049 494.73,81.218 489.103,81.218 489.103,82.049 491.427,82.049 491.427,88.467 492.408,88.467 492.408,82.049 "
   id="polygon6"
   style="fill:#ffffff;fill-opacity:1" />
		</g>
		<g
   id="g14">
			
			<polygon
   points="496.984,81.218 495.632,81.218 495.632,88.467 496.613,88.467 496.613,82.577 498.566,88.467 499.537,88.467 501.49,82.577 501.49,88.467 502.3,88.467 502.3,81.218 501.119,81.218 499.085,87.409 "
   id="polygon12"
   style="fill:#ffffff;fill-opacity:1" />
		</g>
		<path
   d="M 335.361,71.101 V 41.126 c 0,-6.115 2.854,-10.494 8.941,-10.494 h 37.547 c 0.23,0 0.451,-0.228 0.451,-0.454 v -5.964 c 0,-0.052 -0.015,-0.103 -0.035,-0.152 h -45.909 c -9.951,1.265 -14.812,8.2 -14.812,17.064 V 71.1 c 0,6.115 -2.934,10.495 -8.94,10.495 h -39.652 c -0.225,0 -0.451,0.151 -0.451,0.453 v 5.965 c 0,0.247 0.152,0.436 0.33,0.499 h 45.019 c 11.734,-0.308 17.511,-7.799 17.511,-17.411 z"
   id="path16"
   inkscape:connector-curvature="0"
   style="fill:#ffffff;fill-opacity:1" />
		<path
   d="m 181.104,88.513 h 13.183 c 0.178,-0.063 0.33,-0.252 0.33,-0.499 V 68.911 c 0,-6.115 3.454,-10.344 8.486,-10.344 h 54.301 c 12.242,0 18.176,-7.55 18.176,-17.441 0,-8.864 -4.857,-15.799 -14.813,-17.064 H 180.86 c -0.023,0.05 -0.062,0.089 -0.062,0.152 v 5.964 c 0,0.302 0.15,0.454 0.45,0.454 h 71.574 c 6.084,0 8.938,4.379 8.938,10.494 0,6.116 -2.854,10.495 -8.938,10.495 h -56.628 c -8.787,0 -15.396,7.476 -15.396,17.29 v 19.103 c -0.001,0.247 0.105,0.435 0.306,0.499 z"
   id="path18"
   inkscape:connector-curvature="0"
   style="fill:#ffffff;fill-opacity:1" />
		<g
   id="g24">
			
			<path
   d="m 382.08,81.596 h 72.1 c 0.221,0 0.371,0.151 0.371,0.302 v 6.116 c 0,0.302 0.23,0.453 0.451,0.453 h 12.996 c 0.23,0 0.449,-0.151 0.449,-0.453 v -5.965 c 0,-0.227 0.23,-0.453 0.451,-0.453 h 12.916 c 0.301,0 0.451,-0.227 0.451,-0.452 v -6.041 c 0,-0.227 -0.15,-0.453 -0.451,-0.453 h -12.916 c -0.221,0 -0.451,-0.227 -0.451,-0.453 V 30.632 c 0,-3.555 -1.321,-5.819 -3.542,-6.57 h -3.76 c -1.172,0.301 -2.446,0.84 -3.812,1.661 l -77.656,47.945 c -3.004,1.887 -4.057,4 -3.305,5.586 0.6,1.36 2.323,2.342 5.708,2.342 z M 393.343,73.593 453.5,36.37 c 0.379,-0.302 1.131,-0.226 1.131,0.604 v 37.223 c 0,0.227 -0.23,0.453 -0.451,0.453 h -60.465 c -0.521,0 -0.752,-0.15 -0.822,-0.302 -0.081,-0.302 0.069,-0.529 0.45,-0.755 z"
   id="path22"
   inkscape:connector-curvature="0"
   style="fill:#ffffff;fill-opacity:1" />
		</g>
	</g>
	<g
   id="g40">
		<path
   d="m 50.372,0 c 5.858,1.092 11.616,2.652 17.346,4.278 3.278,0.952 6.547,1.937 9.795,2.986 5.102,1.625 10.182,3.465 14.803,6.209 2.07,1.257 4.058,2.677 5.757,4.409 1.841,1.799 3.348,3.933 4.454,6.255 2.015,4.208 2.705,8.909 2.909,13.531 0.096,3.016 0.09,6.058 -0.473,9.035 -0.468,2.587 -1.3,5.138 -2.684,7.385 -1.222,1.985 -2.921,3.701 -4.983,4.807 -1.978,1.066 -4.243,1.574 -6.486,1.529 -3.402,0.036 -6.703,-1.049 -9.756,-2.47 -0.055,-10.153 -0.008,-20.308 -0.024,-30.46 -0.022,-1.837 0.103,-3.693 -0.267,-5.505 -0.26,-1.404 -0.833,-2.819 -1.935,-3.772 -0.731,-0.659 -1.678,-1.031 -2.63,-1.232 -0.963,-0.183 -1.99,0.226 -2.586,0.999 -0.991,1.238 -1.251,2.882 -1.296,4.423 -0.008,27.181 0.01,54.363 -0.008,81.542 C 64.996,101.632 57.683,99.313 50.373,96.989 50.365,64.659 50.368,32.33 50.372,0 Z"
   id="path28"
   inkscape:connector-curvature="0"
   style="fill:#ffffff;fill-opacity:1" />
		<path
   d="m 17.506,68.783 c 9.533,-3.375 19.056,-6.782 28.593,-10.146 0.015,3.743 0,7.487 0.006,11.233 -0.006,0.508 0.027,1.018 -0.037,1.523 -7.538,2.672 -15.061,5.391 -22.592,8.08 -1.044,0.394 -2.115,0.841 -2.92,1.638 -0.375,0.374 -0.68,0.926 -0.475,1.462 0.258,0.631 0.902,0.974 1.496,1.234 1.652,0.672 3.458,0.767 5.218,0.848 1.962,-0.031 3.932,-0.178 5.854,-0.602 1.299,-0.255 2.549,-0.693 3.787,-1.158 3.218,-1.165 6.436,-2.337 9.659,-3.49 0.024,3.166 0.004,6.334 0.01,9.503 -0.01,0.633 0.029,1.27 -0.034,1.901 -3.958,0.711 -7.963,1.194 -11.986,1.257 C 25.984,92.249 17.864,90.995 10.169,88.463 7.645,87.732 5.137,86.759 3.03,85.156 1.87,84.258 0.832,83.129 0.304,81.74 c -0.442,-1.176 -0.41,-2.535 0.141,-3.67 0.531,-1.132 1.459,-2.027 2.481,-2.722 2.365,-1.633 4.973,-2.878 7.616,-3.989 2.277,-0.972 4.639,-1.728 6.964,-2.576 z"
   id="path30"
   inkscape:connector-curvature="0"
   style="fill:#ffffff;fill-opacity:1" />
		<path
   d="m 94.209,64.52 c 2.162,-0.25 4.338,-0.309 6.511,-0.387 7.151,0.027 14.338,0.917 21.178,3.062 1.342,0.408 2.642,0.936 3.979,1.362 2.383,0.871 4.769,1.927 6.677,3.64 1.147,1.046 2.135,2.455 2.149,4.064 0.068,1.309 -0.525,2.565 -1.374,3.531 -1.616,1.812 -3.752,3.057 -5.897,4.143 -2.283,1.164 -4.737,1.915 -7.131,2.801 -14.612,5.247 -29.225,10.492 -43.835,15.745 -0.002,-4.093 0.004,-8.185 -0.002,-12.276 0.022,-0.163 -0.068,-0.448 0.163,-0.491 11.118,-3.956 22.233,-7.923 33.349,-11.889 1.503,-0.562 3.122,-0.969 4.398,-1.989 0.522,-0.41 1.033,-1.062 0.777,-1.765 -0.267,-0.615 -0.905,-0.956 -1.492,-1.21 -1.664,-0.659 -3.476,-0.787 -5.246,-0.836 -2.771,0.019 -5.567,0.361 -8.202,1.249 -7.919,2.775 -15.824,5.584 -23.745,8.35 0.001,-4.395 -0.002,-8.787 0.002,-13.181 5.731,-2.011 11.715,-3.23 17.741,-3.923 z"
   id="path32"
   inkscape:connector-curvature="0"
   style="fill:#ffffff;fill-opacity:1" />
		<g
   id="g38">
			<path
   d="m 126.692,94.796 c 1.729,-0.216 3.535,0.559 4.571,1.961 1.131,1.446 1.338,3.532 0.539,5.184 -0.806,1.714 -2.65,2.915 -4.559,2.852 -1.757,0.039 -3.459,-0.984 -4.324,-2.499 -0.782,-1.335 -0.875,-3.044 -0.27,-4.464 0.68,-1.639 2.282,-2.836 4.043,-3.034 z m -0.376,0.923 c -0.968,0.22 -1.847,0.807 -2.425,1.614 -0.695,0.949 -0.958,2.205 -0.694,3.354 0.222,1.067 0.897,2.02 1.808,2.611 1.403,0.922 3.37,0.871 4.712,-0.142 1.385,-0.978 2.043,-2.857 1.567,-4.484 -0.294,-1.1 -1.08,-2.036 -2.07,-2.581 -0.88,-0.468 -1.93,-0.603 -2.898,-0.372 z"
   id="path34"
   inkscape:connector-curvature="0"
   style="fill:#ffffff;fill-opacity:1" />
			<path
   d="m 125.118,96.896 c 0.901,-0.005 1.805,-0.001 2.707,-0.003 0.51,0.007 1.072,0.126 1.433,0.517 0.364,0.411 0.393,1.008 0.293,1.523 -0.056,0.34 -0.356,0.541 -0.573,0.779 0.189,0.167 0.43,0.324 0.475,0.596 0.104,0.52 -0.006,1.068 0.161,1.578 0.105,0.18 0.212,0.362 0.22,0.578 -0.374,0.01 -0.747,0.003 -1.121,0.009 -0.252,-0.593 -0.064,-1.26 -0.221,-1.871 -0.062,-0.249 -0.32,-0.404 -0.566,-0.396 -0.61,-0.026 -1.222,-0.008 -1.83,-0.009 -0.009,0.758 0.022,1.519 -0.018,2.276 -0.318,-0.005 -0.637,-0.005 -0.955,0.001 -0.016,-1.862 -0.005,-3.719 -0.005,-5.578 z m 0.978,0.884 c 10e-4,0.513 10e-4,1.026 0,1.541 0.545,0.003 1.091,0.007 1.638,0.002 0.271,-0.002 0.586,-0.053 0.762,-0.283 0.185,-0.293 0.181,-0.683 0.014,-0.981 -0.14,-0.235 -0.437,-0.258 -0.681,-0.273 -0.578,-0.017 -1.156,-0.007 -1.733,-0.006 z"
   id="path36"
   inkscape:connector-curvature="0"
   style="fill:#ffffff;fill-opacity:1" />
		</g>
	</g>
</g>
</svg>