<?xml version="1.0" encoding="UTF-8" standalone="no"?>
<!-- Generator: Adobe Illustrator 17.1.0, SVG Export Plug-In . SVG Version: 6.00 Build 0)  -->

<svg
   xmlns:dc="http://purl.org/dc/elements/1.1/"
   xmlns:cc="http://creativecommons.org/ns#"
   xmlns:rdf="http://www.w3.org/1999/02/22-rdf-syntax-ns#"
   xmlns:svg="http://www.w3.org/2000/svg"
   xmlns="http://www.w3.org/2000/svg"
   xmlns:sodipodi="http://sodipodi.sourceforge.net/DTD/sodipodi-0.dtd"
   xmlns:inkscape="http://www.inkscape.org/namespaces/inkscape"
   version="1.1"
   id="Capa_1"
   x="0px"
   y="0px"
   viewBox="0 0 1200 800"
   xml:space="preserve"
   sodipodi:docname="power.svg"
   width="1200"
   height="800"
   inkscape:export-filename="C:\Users\Petro\Desktop\power_off.png"
   inkscape:export-xdpi="96"
   inkscape:export-ydpi="96"
   inkscape:version="0.92.3 (2405546, 2018-03-11)"><metadata
   id="metadata39"><rdf:RDF><cc:Work
       rdf:about=""><dc:format>image/svg+xml</dc:format><dc:type
         rdf:resource="http://purl.org/dc/dcmitype/StillImage" /><dc:title></dc:title></cc:Work></rdf:RDF></metadata><defs
   id="defs37" /><sodipodi:namedview
   pagecolor="#ffffff"
   bordercolor="#666666"
   borderopacity="1"
   objecttolerance="10"
   gridtolerance="10"
   guidetolerance="10"
   inkscape:pageopacity="0"
   inkscape:pageshadow="2"
   inkscape:window-width="1920"
   inkscape:window-height="1137"
   id="namedview35"
   showgrid="false"
   inkscape:zoom="0.3973064"
   inkscape:cx="868.03592"
   inkscape:cy="478.94791"
   inkscape:window-x="-8"
   inkscape:window-y="-8"
   inkscape:window-maximized="1"
   inkscape:current-layer="Capa_1" />

<rect
   style="fill:#dcdcdc;fill-opacity:1;stroke-width:0.54493964"
   id="rect905"
   width="1200"
   height="800"
   x="0"
   y="0" /><g
   id="g4"
   transform="translate(0,503)">
</g>
<g
   id="g6"
   transform="translate(0,503)">
</g>
<g
   id="g8"
   transform="translate(0,503)">
</g>
<g
   id="g10"
   transform="translate(0,503)">
</g>
<g
   id="g12"
   transform="translate(0,503)">
</g>
<g
   id="g14"
   transform="translate(0,503)">
</g>
<g
   id="g16"
   transform="translate(0,503)">
</g>
<g
   id="g18"
   transform="translate(0,503)">
</g>
<g
   id="g20"
   transform="translate(0,503)">
</g>
<g
   id="g22"
   transform="translate(0,503)">
</g>
<g
   id="g24"
   transform="translate(0,503)">
</g>
<g
   id="g26"
   transform="translate(0,503)">
</g>
<g
   id="g28"
   transform="translate(0,503)">
</g>
<g
   id="g30"
   transform="translate(0,503)">
</g>
<g
   id="g32"
   transform="translate(0,503)">
</g>
<g
   id="g859"
   transform="matrix(0.74999999,0,0,0.74999999,40.479007,292.89217)"><path
     style="fill:#ff0000;fill-opacity:1;stroke-width:0.67340297"
     inkscape:connector-curvature="0"
     id="path2"
     d="m 323.62701,122.65718 c -0.666,-3.25456 -1.4902,-6.45188 -2.4639,-9.5832 -0.2438,-0.78249 -0.4964,-1.56161 -0.7583,-2.33602 -0.5239,-1.54883 -1.0855,-3.08083 -1.6822,-4.59464 -0.2983,-0.7569 -0.606,-1.5091 -0.9219,-2.25724 -0.9488,-2.24311 -1.9771,-4.444463 -3.0814,-6.600703 -0.7361,-1.43704 -1.5064,-2.85456 -2.3091,-4.25052 -4.0135,-6.97982 -8.8452,-13.42968 -14.3644,-19.21825 -1.1037,-1.15757 -2.235,-2.28889 -3.3926,-3.3926 -5.7886,-5.51921 -12.2384,-10.35088 -19.2183,-14.36436 -1.3959,-0.80269 -2.8134,-1.57307 -4.2505,-2.30909 -2.1562,-1.10439 -4.3576,-2.13267 -6.6007,-3.0815 -0.7474,-0.3165 -1.5003,-0.62357 -2.2572,-0.92189 -1.5138,-0.59663 -3.0458,-1.15825 -4.5946,-1.68216 -0.7745,-0.26195 -1.5529,-0.51515 -2.3361,-0.75825 -3.1313,-0.97374 -6.3286,-1.79799 -9.5832,-2.463977 -6.5104,-1.332666 -13.2505,-2.032333 -20.1543,-2.032333 -6.9037,0 -13.6438,0.699667 -20.1536,2.031653 -3.2545,0.666 -6.4518,1.490237 -9.5832,2.463987 -0.7824,0.24377 -1.5616,0.49629 -2.336,0.75825 -1.5488,0.52391 -3.0808,1.08552 -4.5946,1.68216 -0.7569,0.29832 -1.5091,0.60606 -2.2573,0.92188 -2.2431,0.94883 -4.4444,1.97712 -6.6007,3.0815 -1.437,0.73604 -2.8545,1.5064 -4.2505,2.3091 -6.9798,4.01415 -13.4297,8.84582 -19.2182,14.36436 -1.1576,1.10371 -2.2889,2.23502 -3.3926,3.3926 -5.5192,5.78924 -10.3509,12.2391 -14.3644,19.21892 -0.8027,1.39596 -1.5731,2.81348 -2.3091,4.25052 -1.1044,2.15624 -2.1327,4.357593 -3.0815,6.600703 -0.3165,0.74748 -0.6235,1.50034 -0.9219,2.25724 -0.5966,1.51381 -1.1582,3.04581 -1.6821,4.59464 -0.262,0.77441 -0.5152,1.55286 -0.7583,2.33602 -0.9737,3.13132 -1.798,6.32864 -2.464,9.5832 -1.3326,6.50979 -2.0323,13.24988 -2.0323,20.1536 0,14.67008 3.1589,28.60212 8.8337,41.15368 0.6674,1.47678 1.3704,2.93402 2.1064,4.37174 1.1044,2.15622 2.2849,4.26668 3.5374,6.32864 0.835,1.37441 1.7024,2.72728 2.6014,4.05725 0.4491,0.66532 0.9064,1.32457 1.371,1.97779 0.9293,1.30706 1.8896,2.59057 2.8795,3.84984 0.9899,1.25926 2.0087,2.49428 3.0566,3.70372 1.0478,1.20942 2.1239,2.39394 3.2276,3.55152 1.1037,1.15758 2.235,2.28889 3.3926,3.3926 5.7885,5.51921 12.2384,10.35088 19.2182,14.36436 1.396,0.8027 2.8135,1.5724 4.2505,2.3091 2.1563,1.10438 4.3576,2.13267 6.6007,3.0815 0.7475,0.31649 1.5004,0.62356 2.2573,0.92188 1.5138,0.59664 3.0458,1.15825 4.5946,1.68216 0.7744,0.26196 1.5529,0.51516 2.336,0.75825 3.1314,0.97375 6.3287,1.79799 9.5832,2.46399 6.5098,1.33198 13.2499,2.03165 20.1536,2.03165 6.9038,0 13.6439,-0.69967 20.1536,-2.03165 3.2546,-0.666 6.4519,-1.49024 9.5832,-2.46399 0.7825,-0.24377 1.5617,-0.49629 2.3361,-0.75825 1.5488,-0.52391 3.0808,-1.08552 4.5946,-1.68216 0.7569,-0.29832 1.5091,-0.60606 2.2573,-0.92188 2.2431,-0.94883 4.4444,-1.97712 6.6007,-3.0815 1.437,-0.73604 2.8545,-1.5064 4.2505,-2.3091 6.9798,-4.01348 13.4296,-8.84515 19.2182,-14.36436 1.1576,-1.10371 2.2889,-2.23502 3.3926,-3.3926 1.1037,-1.15758 2.1798,-2.3421 3.2276,-3.55152 1.0479,-1.20944 2.0674,-2.44446 3.0566,-3.70372 0.9899,-1.25927 1.9495,-2.54278 2.8795,-3.84984 0.4646,-0.65322 0.9219,-1.31247 1.371,-1.97779 0.8984,-1.32997 1.7657,-2.68284 2.6014,-4.05725 1.2525,-2.06196 2.433,-4.17242 3.5374,-6.32864 0.736,-1.43772 1.4384,-2.89496 2.1064,-4.37174 5.6747,-12.55156 8.8337,-26.4836 8.8337,-41.15368 0,-6.90372 -0.6997,-13.64381 -2.0317,-20.1536 z M 216.00651,76.169487 c 0,-5.18387 4.2438,-9.38589 9.4276,-9.38589 5.1839,0 9.4276,4.20202 9.4276,9.38589 v 28.346893 c 0,5.18386 -4.2437,9.3859 -9.4276,9.3859 -5.1838,0 -9.4276,-4.20204 -9.4276,-9.3859 z m 73.6157,69.157803 c -1.7569,33.38127 -29.0149,60.17395 -62.4218,61.34768 -36.8082,1.29361 -67.2514,-28.27753 -67.2514,-64.8056 0,-19.80883 9.2539,-37.56915 23.1308,-49.472893 5.4868,-4.7071 13.9684,-0.82694 13.9684,6.40204 v 0 c 0,2.496973 -1.1192,4.849173 -3.0203,6.468703 -10.2902,8.7704 -17.0263,21.9186 -17.0263,36.60147 0,26.34689 21.5826,47.78199 47.9295,47.78199 26.3469,0 47.757,-21.4351 47.757,-47.78199 0,-14.22496 -5.9522,-27.01557 -16.1078,-35.77655 -1.8868,-1.62761 -2.9966,-3.97509 -2.9966,-6.466693 v 0 c 0,-7.29833 8.6196,-11.2108 14.0896,-6.37913 14.26,12.596003 23.0391,31.361043 21.9489,52.080973 z" /><flowRoot
     transform="matrix(2.20234,0,0,2.20234,-383.51628,-7.9415513)"
     style="font-style:normal;font-weight:normal;font-size:40px;line-height:1.25;font-family:sans-serif;letter-spacing:0px;word-spacing:0px;fill:#000000;fill-opacity:1;stroke:none"
     id="flowRoot846"
     xml:space="preserve"><flowRegion
       id="flowRegion848"><rect
         y="20.135593"
         x="317.13559"
         height="331.48532"
         width="1497.0919"
         id="rect850" /></flowRegion><flowPara
       style="font-style:normal;font-variant:normal;font-weight:normal;font-stretch:normal;font-size:80.72222137px;font-family:Magneto;-inkscape-font-specification:Magneto"
       id="flowPara852">Power Off</flowPara></flowRoot></g></svg>