<?xml version="1.0" encoding="UTF-8" standalone="no"?>
<svg
   xmlns:dc="http://purl.org/dc/elements/1.1/"
   xmlns:cc="http://creativecommons.org/ns#"
   xmlns:rdf="http://www.w3.org/1999/02/22-rdf-syntax-ns#"
   xmlns:svg="http://www.w3.org/2000/svg"
   xmlns="http://www.w3.org/2000/svg"
   xmlns:sodipodi="http://sodipodi.sourceforge.net/DTD/sodipodi-0.dtd"
   xmlns:inkscape="http://www.inkscape.org/namespaces/inkscape"
   version="1.1"
   id="svg4256"
   width="1200"
   height="800"
   viewBox="0 0 1200 800.00096"
   sodipodi:docname="Sony_logo.svg"
   inkscape:export-filename="C:\Users\Petro\Desktop\Sony_logo.png"
   inkscape:export-xdpi="96"
   inkscape:export-ydpi="96"
   inkscape:version="0.92.3 (2405546, 2018-03-11)">
  <sodipodi:namedview
     pagecolor="#ffffff"
     bordercolor="#666666"
     borderopacity="1"
     objecttolerance="10"
     gridtolerance="10"
     guidetolerance="10"
     inkscape:pageopacity="0"
     inkscape:pageshadow="2"
     inkscape:window-width="1920"
     inkscape:window-height="1137"
     id="namedview6"
     showgrid="false"
     inkscape:zoom="0.568"
     inkscape:cx="250"
     inkscape:cy="44.838501"
     inkscape:window-x="-8"
     inkscape:window-y="-8"
     inkscape:window-maximized="1"
     inkscape:current-layer="svg4256" />
  <metadata
     id="metadata4264">
    <rdf:RDF>
      <cc:Work
         rdf:about="">
        <dc:format>image/svg+xml</dc:format>
        <dc:type
           rdf:resource="http://purl.org/dc/dcmitype/StillImage" />
        <dc:title></dc:title>
      </cc:Work>
    </rdf:RDF>
  </metadata>
  <defs
     id="defs4262" />
  <rect
     style="fill:#ffffff;fill-opacity:1;stroke-width:0.76460713"
     id="rect4519"
     width="1200.0015"
     height="800.00098"
     x="-0.00073242188"
     y="-8.2812503e-006" />
  <path
     id="path4258"
     d="m 477.53362,474.99886 c -30.86296,0 -59.51214,-9.25547 -78.63555,-26.42 -14.44777,-12.96792 -21.39023,-30.58239 -21.39023,-48.71182 0,-17.90873 7.24185,-35.64468 21.38852,-48.54416 17.75989,-16.18595 49.11557,-26.32249 78.63726,-26.32249 32.66958,0 58.81757,8.22899 78.80664,26.36696 14.22195,12.90634 21.09768,30.56358 21.09768,48.5014 0,17.38694 -7.2966,35.903 -21.09768,48.71011 -18.61359,17.27573 -47.86497,26.42 -78.80664,26.42 v -19.78378 c 16.38099,0 31.57638,-5.65593 42.18852,-16.21503 10.53857,-10.48725 15.44859,-23.37819 15.44859,-39.13301 0,-15.09274 -5.29666,-29.20348 -15.44859,-39.21171 -10.47015,-10.31275 -26.02823,-16.1158 -42.18852,-16.1158 -16.2099,0 -31.77825,5.74317 -42.25694,16.1158 -10.09719,10.00481 -15.40753,24.1566 -15.40753,39.21171 0,15.00891 5.37193,29.15216 15.40753,39.13472 10.48725,10.4325 26.00085,16.21503 42.25694,16.21503 v 19.78378 z M 251.95681,325.07225 c -16.50929,0 -35.26487,3.088 -51.20104,10.20496 -14.70781,6.56266 -26.74677,17.17651 -26.74677,34.77216 -0.007,15.84721 10.06468,25.12834 9.79095,24.87172 4.28387,3.94342 11.18013,10.65833 29.21033,14.60174 8.0579,1.76214 25.28574,4.46863 42.44171,6.26156 17.02938,1.79635 33.78845,3.50374 40.61457,5.23165 5.42326,1.38062 14.53331,3.2608 14.53331,13.48116 0,10.17931 -9.59763,13.28613 -11.26567,13.9602 -1.66632,0.65865 -13.18006,5.94162 -33.87741,5.94162 -15.28093,0 -33.65157,-4.59522 -40.34768,-6.99035 -7.71916,-2.74756 -15.81641,-6.38131 -23.36963,-15.6077 -1.87846,-2.28735 -4.84158,-8.57799 -4.84158,-14.80704 h -18.73163 v 52.48758 h 20.82052 v -7.0913 c 0,-0.8075 1.00938,-4.12818 4.50456,-2.5491 4.34887,1.97598 17.11492,7.05879 30.46264,9.8457 10.94403,2.28906 18.00111,3.92972 31.60716,3.92972 22.19944,0 34.12548,-3.61665 42.36986,-5.97072 7.76707,-2.22405 17.3647,-6.21707 25.16085,-12.43415 4.22227,-3.36174 13.48116,-11.97907 13.48116,-27.62099 0,-15.01405 -8.0579,-24.33281 -10.89271,-27.16762 -3.86129,-3.86301 -8.57799,-6.85692 -13.49314,-9.16479 -4.28215,-2.01534 -11.03984,-4.43613 -16.56917,-5.78938 -10.7319,-2.63464 -34.99799,-5.88518 -46.6024,-7.09985 -12.16897,-1.27113 -33.27862,-3.01957 -41.70948,-5.62856 -2.55595,-0.7921 -7.76707,-3.27448 -7.76707,-9.32389 0,-4.30269 2.38316,-7.95013 7.09301,-10.89785 7.47623,-4.68419 22.57753,-7.59598 38.31866,-7.59598 18.61017,-0.0685 34.37013,4.18634 44.39546,8.66865 3.40964,1.52262 7.39924,3.70904 10.56766,6.29578 3.57558,2.91521 8.59509,8.97318 10.41026,17.42286 h 16.81724 v -45.68882 h -18.77782 v 5.31034 c 0,1.71423 -1.77069,3.9417 -5.11874,2.10087 -8.40349,-4.40874 -32.16318,-13.92084 -61.29139,-13.96018 m 411.51079,8.30254 91.60006,82.66622 -0.94094,-55.6577 c -0.0924,-7.29831 -1.43709,-10.34525 -9.33075,-10.34525 h -17.2227 v -16.64958 h 78.32077 v 16.64958 h -16.80013 c -8.05106,0 -8.55917,2.57477 -8.65668,10.34525 l 1.41996,106.34893 h -26.82204 l -105.5055,-94.16284 0.0223,66.82755 c 0.0924,7.2641 0.43283,10.68571 7.91761,10.68571 h 18.81033 v 16.64273 h -76.91795 v -16.64102 h 17.98058 c 6.71663,0 6.44974,-6.40355 6.44974,-11.0655 v -78.00256 c 0,-5.0349 -0.70656,-10.96628 -11.25198,-10.96628 H 597.9471 v -16.67524 z m 231.92391,116.67708 c 0.73565,0 4.00329,-0.0941 4.63628,-0.28742 1.80833,-0.56457 3.03495,-1.85452 3.603,-3.19921 0.23948,-0.56457 0.35925,-3.06234 0.35925,-3.60467 l 0.0135,-26.31222 c 0,-0.633 -0.0465,-0.90673 -1.12057,-2.31643 -1.1805,-1.53973 -47.97962,-54.57477 -50.12155,-56.91002 -2.6603,-2.89981 -7.33081,-7.38213 -14.42724,-7.38213 h -16.27491 v -16.65642 h 91.8481 v 16.63589 h -11.07233 c -2.5611,0 -4.26333,2.42934 -2.07517,5.129 0,0 30.90225,36.96542 31.1949,37.35206 0.2874,0.39349 0.5337,0.48758 0.92722,0.12831 0.38663,-0.36782 31.6773,-37.14163 31.92368,-37.43247 1.48837,-1.78266 0.47902,-5.15808 -2.72873,-5.15808 h -11.35807 v -16.65471 h 75.27555 v 16.65471 h -16.8172 c -6.1008,0 -8.5832,1.12913 -13.17328,6.31801 -2.09917,2.3746 -49.39785,56.36255 -50.6844,57.82529 -0.67402,0.76474 -0.6159,1.83057 -0.6159,2.46356 v 26.3088 c 0,0.53378 0.11978,3.03498 0.35933,3.59613 0.5697,1.35153 1.80315,2.64148 3.60975,3.1992 0.633,0.19503 3.8562,0.29084 4.59015,0.29084 h 17.20215 v 16.653 h -91.37408 v -16.65471 l 16.30399,0.0136 z"
     inkscape:connector-curvature="0"
     style="stroke-width:1.71080744" />
</svg>
