<?xml version="1.0" encoding="UTF-8" standalone="no"?>
<svg
   xmlns:dc="http://purl.org/dc/elements/1.1/"
   xmlns:cc="http://creativecommons.org/ns#"
   xmlns:rdf="http://www.w3.org/1999/02/22-rdf-syntax-ns#"
   xmlns:svg="http://www.w3.org/2000/svg"
   xmlns="http://www.w3.org/2000/svg"
   xmlns:sodipodi="http://sodipodi.sourceforge.net/DTD/sodipodi-0.dtd"
   xmlns:inkscape="http://www.inkscape.org/namespaces/inkscape"
   width="600"
   height="400"
   version="1.1"
   id="svg22"
   sodipodi:docname="windows_logo.svg"
   style="fill:#0078d6"
   inkscape:export-filename="C:\Users\Petro\Desktop\windows_logo.png"
   inkscape:export-xdpi="192.06"
   inkscape:export-ydpi="192.06"
   inkscape:version="0.92.3 (2405546, 2018-03-11)">
  <metadata
     id="metadata28">
    <rdf:RDF>
      <cc:Work
         rdf:about="">
        <dc:format>image/svg+xml</dc:format>
        <dc:type
           rdf:resource="http://purl.org/dc/dcmitype/StillImage" />
        <dc:title />
      </cc:Work>
    </rdf:RDF>
  </metadata>
  <defs
     id="defs26" />
  <sodipodi:namedview
     pagecolor="#ffffff"
     bordercolor="#666666"
     borderopacity="1"
     objecttolerance="10"
     gridtolerance="10"
     guidetolerance="10"
     inkscape:pageopacity="0"
     inkscape:pageshadow="2"
     inkscape:window-width="1920"
     inkscape:window-height="1137"
     id="namedview24"
     showgrid="false"
     fit-margin-left="2.7755576e-017"
     fit-margin-top="0"
     fit-margin-right="0"
     fit-margin-bottom="0"
     inkscape:zoom="1.1932773"
     inkscape:cx="357.60944"
     inkscape:cy="230.03168"
     inkscape:window-x="-8"
     inkscape:window-y="-8"
     inkscape:window-maximized="1"
     inkscape:current-layer="svg22" />
  <rect
     style="fill:#0078d6;fill-opacity:1;stroke-width:2.84682417"
     id="rect4529"
     width="600"
     height="400"
     x="0"
     y="0" />
  <g
     id="g3743"
     transform="matrix(1.1415525,0,0,1.1415525,28.687217,-206.621)"
     style="fill:#ffffff;fill-opacity:1">
    <path
       inkscape:connector-curvature="0"
       id="path2"
       d="m 0,324.89 35.7,-4.9 v 34.5 H 0 m 40,-35.18 47.3,-6.91 v 41.8 H 40 m -40,3.94 h 35.7 v 34.6 L 0,387.74 M 40,358.6 H 87.3 V 400 L 40,393.3"
       style="fill:#ffffff;fill-opacity:1" />
    <path
       inkscape:connector-curvature="0"
       id="path4"
       d="m 113.95,329.39 c 2.25,0.01 4.5,0.01 6.76,0.04 3.51,12.68 6.97,25.38 10.49,38.07 0.75,2.66 1.31,5.38 1.64,8.14 3.66,-15.57 8.66,-30.81 12.86,-46.25 1.95,0.01 3.9,0.01 5.85,0.02 3.09,10.99 5.98,22.03 9.04,33.03 1.13,4.38 2.59,8.7 3.05,13.23 3.31,-15.55 8.03,-30.79 11.78,-46.24 2.22,-0.03 4.44,-0.03 6.66,-0.03 -4.84,17.69 -9.88,35.33 -14.78,53 h -7.21 c -3.55,-12.69 -7.07,-25.39 -10.66,-38.06 -0.6,-2.05 -0.85,-4.17 -1.04,-6.29 -0.28,1.83 -0.54,3.68 -1.01,5.47 -3.63,12.92 -7.31,25.82 -10.84,38.76 -2.4,0.13 -4.8,0.14 -7.2,0.12 -5.15,-17.66 -10.26,-35.34 -15.39,-53.01"
       style="fill:#ffffff;fill-opacity:1" />
    <path
       inkscape:connector-curvature="0"
       id="path6"
       d="m 186.2,329.82 a 4,4 0 1 1 0,1 m 0.9,13.58 h 6 v 38 h -6"
       style="fill:#ffffff;fill-opacity:1" />
    <path
       inkscape:connector-curvature="0"
       id="path8"
       d="m 209.06,350.52 c 3.43,-6.11 11.43,-8.92 17.88,-6.09 5.13,2 7.04,7.94 7.2,13 0.28,8.32 0.05,16.65 0.12,24.97 -2,0 -4,0 -6,-0.01 -0.09,-7.99 0.21,-16 -0.14,-23.99 -0.16,-3.96 -1.84,-8.72 -6.15,-9.73 -6.29,-1.9 -12.57,3.77 -12.77,9.99 -0.18,7.91 -0.01,15.83 -0.07,23.74 h -6 c 0.01,-12.67 0.01,-25.33 0,-38 h 6.01 c -0.01,2.04 -0.02,4.08 -0.08,6.12"
       style="fill:#ffffff;fill-opacity:1" />
    <path
       inkscape:connector-curvature="0"
       id="path10"
       d="m 270.13,326.41 c 2,-0.01 4,-0.01 6,-0.01 v 56 h -5.98 c 0.01,-2.03 -0.03,-4.06 -0.17,-6.09 -4.33,7.78 -15.91,9.5 -22.53,3.73 -4.73,-4.07 -6.17,-10.69 -5.92,-16.68 0.05,-6.08 2.05,-12.54 6.89,-16.51 6.29,-5.18 17.44,-4.88 21.75,2.73 -0.08,-7.73 -0.01,-15.45 -0.04,-23.17 m -12.92,22.14 c -4.8,0.76 -8.05,5.14 -8.95,9.67 -1.18,5.46 -0.97,11.78 2.47,16.42 3.72,4.94 11.93,5.05 15.91,0.38 2.71,-2.82 3.48,-6.86 3.5,-10.64 0.03,-3.99 0.37,-8.49 -2.28,-11.82 -2.34,-3.33 -6.71,-4.83 -10.65,-4.01"
       style="fill:#ffffff;fill-opacity:1" />
    <path
       inkscape:connector-curvature="0"
       id="path12"
       d="m 299.47,343.46 c 5.35,-0.47 11.28,0.37 15.3,4.24 4.54,4.19 5.89,10.7 5.64,16.65 -0.07,5.35 -2.05,10.78 -5.97,14.51 -8.18,7.44 -23.37,5.81 -28.56,-4.42 -4.08,-8.57 -3.26,-20.43 4.19,-26.94 2.67,-2.26 6.05,-3.29 9.4,-4.04 m -1.08,5.44 c -8.81,2.71 -10.3,14.22 -7.55,21.79 2.19,6.72 10.73,9.7 16.86,6.56 4.15,-1.91 6.04,-6.59 6.44,-10.88 0.45,-5.01 0.05,-10.69 -3.49,-14.6 -3,-3.38 -8.08,-4.11 -12.26,-2.87"
       style="fill:#ffffff;fill-opacity:1" />
    <path
       inkscape:connector-curvature="0"
       id="path14"
       d="m 322.91,344.4 h 6.26 c 2.48,9.05 4.88,18.12 7.41,27.16 0.51,1.7 0.7,3.46 0.88,5.22 2.83,-10.9 6.41,-21.6 9.62,-32.39 l 5.47,0.03 c 2.75,10.8 6.17,21.44 8.45,32.35 2.35,-10.85 5.69,-21.46 8.3,-32.25 2.01,-0.1 4.02,-0.13 6.04,-0.15 -3.81,12.67 -7.46,25.38 -11.29,38.03 h -6.22 c -2.7,-10.3 -6.2,-20.4 -8.39,-30.81 -2.61,10.4 -6.23,20.52 -9.21,30.81 h -6.01 c -3.76,-12.67 -7.6,-25.31 -11.31,-38"
       style="fill:#ffffff;fill-opacity:1" />
    <path
       inkscape:connector-curvature="0"
       id="path16"
       d="m 390.46,343.44 c 3.75,-0.26 7.57,0.1 11.1,1.48 0.98,1.86 0.22,4.3 0.45,6.39 -4.21,-2.63 -10.01,-4.31 -14.58,-1.63 -3.13,1.7 -3.28,6.73 -0.23,8.6 4.37,2.83 9.92,3.57 13.8,7.21 4.28,4.12 3.24,12.04 -1.77,15.13 -6.09,3.88 -14.11,3.5 -20.49,0.54 0,-2.24 -0.01,-4.48 -0.05,-6.72 4.54,3.46 10.92,5.38 16.35,2.92 3.17,-1.59 3.33,-6.46 0.54,-8.51 -4.37,-3.22 -10.36,-3.73 -14.24,-7.75 -3.83,-3.86 -3.14,-10.96 1.13,-14.23 2.21,-2.03 5.2,-2.64 7.99,-3.43"
       style="fill:#ffffff;fill-opacity:1" />
    <path
       inkscape:connector-curvature="0"
       id="path18"
       d="m 432.27,328.55 c 0.53,-0.07 1.59,-0.22 2.11,-0.29 0.03,18.04 0.01,36.09 0.01,54.14 h -5.92 c 0.04,-15.02 -0.1,-30.05 0.07,-45.07 -3.77,2.61 -7.84,4.84 -12.27,6.08 0.03,-2 0.05,-4 0.07,-6 5.8,-1.97 11.08,-5.15 15.93,-8.86"
       style="fill:#ffffff;fill-opacity:1" />
    <path
       inkscape:connector-curvature="0"
       id="path20"
       d="m 456.26,328.53 c 5.2,-0.87 10.97,1.03 14.06,5.45 4.39,6.2 4.8,14.15 5.02,21.48 -0.15,7.74 -1,16.13 -5.94,22.44 -4.55,5.97 -13.87,7.37 -19.97,2.98 -4.95,-3.57 -6.89,-9.8 -7.77,-15.57 -1,-8.57 -0.91,-17.56 2.07,-25.74 1.88,-5.55 6.52,-10.33 12.53,-11.04 m -0.92,5.37 c -5.33,2.16 -6.86,8.46 -7.6,13.58 -0.78,7.14 -0.96,14.5 0.74,21.53 0.85,3.46 2.64,7.13 6.07,8.65 3.89,1.96 9.09,0.27 11.14,-3.57 3.27,-5.65 3.35,-12.43 3.39,-18.78 -0.13,-6.19 -0.38,-12.85 -3.8,-18.23 -2.03,-3.28 -6.4,-4.6 -9.94,-3.18"
       style="fill:#ffffff;fill-opacity:1" />
  </g>
</svg>
