<svg width="24" height="24" version="1.1" viewBox="0 0 24 24" >
 <path d="m12.583 6.0233c-3.1178 0-6.011 1.5492-7.739 4.1438-0.019118 0.02842-0.02374 0.06328-0.012762 0.09604 0.011462 0.03269 0.036413 0.05755 0.068621 0.06883l0.24191 0.08143c0.01463 0.0046 0.029185 7e-3 0.043441 7e-3 0.044836 0 0.086921-0.02216 0.11185-0.05943 0.79248-1.1642 1.865-2.1336 3.1019-2.8033 1.2769-0.69146 2.7236-1.0572 4.1841-1.0572 1.7641 0 3.4662 0.52039 4.9225 1.5048 1.4209 0.96021 2.5245 2.2999 3.1913 3.8742 0.01991 0.04712 0.06592 0.07751 0.11692 0.07751h0.28892c0.03326 0 0.06461-0.01677 0.08345-0.0446 0.01892-0.02776 0.02244-0.06305 0.0099-0.09427-0.68763-1.6927-1.8504-3.1357-3.3631-4.1724-1.5485-1.0613-3.3639-1.6224-5.2499-1.6224zm-9.9402 4.4075c-0.040461 4.71e-4 -0.081008 0.0015-0.12173 3e-3 -0.28787 0.011-0.67281 0.06968-0.97766 0.15357-0.21463 0.05861-0.36122 0.15217-0.46354 0.3321-0.05093 0.08994-0.098076 0.18723-0.072402 0.28647 0.022132 0.08426 0.14264 0.11387 0.23942 0.12929 0.093126 0.01474 0.30462 0.02627 0.36081-0.04207 0.023958-0.02974 0.02146-0.05784 0.00142-0.0935-0.021098-0.03751-0.074403-0.0644-0.1256-0.07403-0.057222-0.01047-0.16782-0.01737-0.19409-0.02883-0.014608-0.0062-0.029906-0.01461-0.029906-0.01461s0.00619-7e-3 0.012418-0.01203c0.011242-0.0091 0.052178-0.02625 0.07816-0.03261 0.03289-0.0074 0.068607-0.01932 0.10403-0.0293 0.24798-0.0686 0.73853-0.07997 0.96353-0.07163 0.87276 0.03256 1.6855 0.22701 2.5079 0.56499 0.8055 0.33128 1.7211 0.89632 2.2552 1.5832 0.20216 0.26 0.45531 0.68697 0.48585 1.0467 0.027852 0.32936-0.077424 0.64469-0.27839 0.8751-0.15248 0.17413-0.35388 0.30278-0.57342 0.4061-0.50006 0.23597-1.1082 0.28475-1.6531 0.27036-0.071566-0.0018-0.34086-0.02598-0.40442-0.03562-0.11077-0.01795-0.25132-0.04473-0.25132-0.04473l-0.035922-1.6862s0.17 6e-3 0.28952 0.01302c0.30536 0.01806 0.93725 0.12241 1.2537 0.24814 0.067452 0.02653 0.13823 0.06778 0.1445 0.13466 0.00455 0.05152-0.036255 0.09551-0.081597 0.13544-0.021362 0.01947-0.044003 0.03549-0.071371 0.05036-0.054582 0.02869-0.14704 0.07786-0.15357 0.08594-0.017226 0.02299-0.018456 0.05688 0.00541 0.07567 0.060874 0.04712 0.25871 0.07342 0.31126 0.07038 0.17662-0.01001 0.35079-0.12977 0.44288-0.29094 0.081906-0.14274 0.08999-0.25219 0.036222-0.41035-0.05788-0.17253-0.23656-0.33556-0.42741-0.43232-0.23177-0.1175-0.63589-0.20566-0.84322-0.2389-0.16194-0.02581-0.3339-0.05042-0.48993-0.05405-0.16056-0.0046-0.42156 0.0032-0.42156 0.0032s-0.00501-0.22881-0.015125-0.38092c-0.016918-0.24966-0.086061-0.74032-0.31358-0.8818-0.04158-0.02556-0.092588-0.02871-0.12143 0.01023-0.044088 0.05762-0.087277 0.27714-0.097023 0.33417-0.018678 0.10545-0.076787 0.6041-0.074851 0.68002 0.0015 0.07722-0.00621 0.28832-0.010785 0.29476-0.00264 3e-3 -0.0052 0.0054-0.00885 0.0082-0.00893 0.0058-0.15423 0.03185-0.24793 0.04525-0.19837 0.02891-0.67593 0.18485-0.82951 0.25266-0.20924 0.0915-0.515 0.25202-0.6001 0.46526-0.06171 0.15299-0.038339 0.28113 0.042797 0.42552 0.10437 0.18482 0.24156 0.32886 0.39406 0.47364 0.054384 0.05124 0.30079 0.25762 0.35814 0.30044 0.20702 0.15296 0.44363 0.30168 0.69278 0.42444 0.081114 0.04048 0.17841 0.08654 0.17841 0.08654s0.019186 0.19509 0.037512 0.30731c0.02266 0.14032 0.069333 0.26196 0.19937 0.31668 0.0792 0.03386 0.17012 0.02858 0.25584 0.01268 0.071016-0.01364 0.11983-0.04537 0.14957-0.10682 0.011352-0.02292 0.031592-0.09364 0.034848-0.12053 0.00671-0.05891 0.00606-0.1427 0.00606-0.1427s0.20952 0.0483 0.35032 0.0739c0.40911 0.0757 0.85277 0.08252 1.2389 0.03588 0.56901-0.06945 1.2322-0.2803 1.6607-0.65063 0.11521-0.09966 0.30931-0.33251 0.39093-0.4794 0.04763-0.0858 0.09256-0.17182 0.13814-0.2768 0.00937-0.02107 0.065837-0.19384 0.076441-0.26872 0.00581-0.03249 0.039307-0.27882 0.025051-0.4091 0.00242-0.05474-0.028413-0.19674-0.031625-0.2221-0.00227-0.0028-0.018349-0.07218-0.029305-0.11941-0.011066-0.04774-0.077602-0.21299-0.093156-0.24062-0.04521-0.08065-0.072333-0.14912-0.10738-0.21871-0.14564-0.29067-0.44544-0.65677-0.68647-0.89562-0.12459-0.12362-0.29664-0.27819-0.42818-0.38573-0.063052-0.05243-0.46894-0.35069-0.53831-0.39647-0.21993-0.14399-0.61144-0.36432-0.85993-0.48413-0.3463-0.16674-0.81934-0.35004-1.1806-0.45929-0.59183-0.17968-1.1708-0.29109-1.7777-0.28402zm6.8525 0.47979c-0.19499-0.0024-0.40154 0.04908-0.55799 0.11498-0.24074 0.10199-0.46209 0.25182-0.63129 0.43209-0.16801 0.17826-0.29734 0.40428-0.28385 0.64964 0.00396 0.07869 0.035752 0.20059 0.075066 0.27049 0.033484 0.05933 0.095607 0.12326 0.10927 0.18532 0.00825 0.03676 7.568e-4 0.085 0.00236 0.1286 0.00308 0.09992 0.046515 0.20265 0.1216 0.26907 0.053548 0.04712 0.10051 0.04521 0.15598 0.0044 0.015796-0.01122 0.039701-0.03917 0.052594-0.06089 0.024112-0.04059 0.04733-0.09667 0.069308-0.11992 0.00275-0.0032 0.01845 5e-3 0.030594 0.01431 0.00979 0.0067 0.1014 0.03028 0.12646 0.03244 0.049104 0.0033 0.10091 0.01653 0.15134 0.02071 0.16236 0.01461 0.38523-0.0376 0.52834-0.0935 0.32582-0.12756 0.57735-0.31079 0.83204-0.5714 0.14874-0.15143 0.2793-0.40022 0.23143-0.627-0.02387-0.1127-0.07546-0.1904-0.16964-0.27165-0.04688-0.04019-0.16161-0.10052-0.24131-0.11434-0.02312-0.0042-0.05218-0.0071-0.06329-0.01414-0.01241-8e-3 -0.02228-0.02423-0.034375-0.03927-0.056958-0.07253-0.17031-0.14177-0.25167-0.16964-0.078093-0.02705-0.16432-0.03926-0.25296-0.04035zm-0.41598 0.5304s-0.053022 0.04355-0.098011 0.08198c-0.14707 0.12584-0.34236 0.3291-0.45027 0.47566-0.059268 0.08048-0.13002 0.18657-0.13002 0.18657s-0.015004-0.03174-0.02475-0.0553c-0.067122-0.1668 0.081228-0.35451 0.21613-0.46999 0.081752-0.07027 0.24536-0.17899 0.35694-0.20071 0.047014-0.0096 0.12998-0.01822 0.12998-0.01822zm0.86693 0.04748c0.03374-8.73e-4 0.064671 0.0065 0.10532 0.02411 0.06255 0.02666 0.11208 0.08382 0.12053 0.1595 0.02781 0.23379-0.24028 0.43267-0.42255 0.53466-0.18586 0.10309-0.38548 0.16444-0.5986 0.17914-0.083226 0.0057-0.30295 0.0078-0.30937-0.01573-0.0018-0.0057 0.012627-0.02685 0.031195-0.04997 0.029436-0.03751 0.067063-0.09222 0.1042-0.14115 0.16093-0.20746 0.45733-0.46742 0.6664-0.58888 0.071236-0.04077 0.10525-0.05416 0.18068-0.07623 0.05192-0.01543 0.088463-0.02456 0.1222-0.02544zm11.016 0.9912c-0.02708 0-0.05274 0.01216-0.0703 0.03339-0.0176 0.02158-0.02446 0.04904-0.01929 0.07593 0.08842 0.44532 0.14442 0.88365 0.17205 1.3391h-1.2985c-0.0605 0-0.10966 0.04897-0.10966 0.10923v0.28063c0 0.06039 0.04916 0.10974 0.10966 0.10974h1.317c8.36e-4 0.06926 0.0015 0.1313 0.0015 0.18949 0 0.40445-0.01746 0.7376-0.05822 1.1136-0.0032 0.02906 0.0063 0.058 0.026 0.07932 0.0191 0.02149 0.0466 0.03373 0.07515 0.03373h0.28858c0.05634 0 0.10297-0.04236 0.10862-0.09844 0.03943-0.37853 0.05633-0.71584 0.05633-1.1282 0-0.05797-6.02e-4 -0.12019-0.0015-0.18945h1.3312c0.06034 0 0.10961-0.04935 0.10961-0.10974v-0.28063c-2.2e-5 -0.06052-0.04931-0.1097-0.10966-0.1097h-1.3496c-0.02691-0.45872-0.08228-0.90552-0.16934-1.3657-0.0089-0.04763-0.05037-0.0822-0.09861-0.0822zm-7.4548 0.36382c-0.03146 8.52e-4 -0.06644 0.01565-0.08057 0.07137-0.02845 0.11029 0.01362 0.22795 0.01362 0.22795 0.27821 0.94388 0.34147 1.5015 0.34147 1.5015s0.01293 0.1641-0.01908 0.17325c-0.02222 0.0169-0.04718-0.0066-0.04718-0.0066-0.03186 0.0012-0.33679-0.51051-0.33679-0.51051l-0.05925-0.1002c-0.33559-0.54162-0.53908-0.72604-0.53908-0.72604-0.04761-0.04448-0.16975-0.16711-0.32188 0.0018-0.15235 0.17006-0.27158 0.71616-0.31951 1.2295-0.04079 0.51231-0.0097 0.80403 0.0651 0.92679 0.08224 0.12461 0.2408 0.16707 0.37176 0.06041 0.13825-0.10637 0.1122-0.78213 0.13402-1.1287 0.02099-0.34804 0.05526-0.28587 0.05526-0.28587 0.03047-0.0082 0.18889 0.31028 0.18889 0.31028s0.41729 0.85413 0.67929 0.98059c0.26541 0.12619 0.47905-0.07682 0.55992-0.26705 0.0821-0.19166 0.22184-0.82514 0.01392-1.5274-0.20931-0.70204-0.64053-0.91884-0.64053-0.91884s-0.02792-0.01306-0.05938-0.0122zm4.0071 0.28248c-0.04911-0.0011-0.11395 0.05491-0.11395 0.05491-0.70657 0.6341-0.80523 1.3377-0.80523 1.3377-0.06686 0.37886 0.01126 0.64491 0.12581 0.83114-0.39276 0.83672-0.58493 1.5665-0.53371 1.9981 0.04761 0.32861 0.28291 0.56612 0.42578 0.61613 0.14417 0.06026 0.16986-0.11322 0.16986-0.11322 0.11682-0.89267 0.32112-1.4892 0.56431-2.0789 0.73642 0.16931 1.2906-0.54779 1.4868-0.89026 0.11524-0.20579 0.17753-0.48037 0.17742-0.73872 0-0.29412-0.08084-0.56708-0.25622-0.69257-0.52212-0.36229-1.3645 0.78657-1.7351 1.3563-0.05522-0.29018 0.14098-0.65806 0.14098-0.65806s0.31458-0.54455 0.35917-0.65523c0.04292-0.11132 0.06798-0.34027 0.01388-0.36296-0.0061-0.0028-0.01284-0.0041-0.01985-0.0043zm-6.51 0.0608c-0.14496 8.38e-4 -0.28184 0.0106-0.3966 0.02488-0.37941 0.04701-0.88727 0.16538-1.1041 0.47708-0.08272 0.119-0.13128 0.30178-0.093242 0.45074 0.02145 0.08263 0.093745 0.15732 0.16762 0.1907 0.073546 0.03296 0.16576 0.0501 0.25068 0.06222 0.082478 0.01214 0.42603 0.0404 0.64436 0.0593 0.20805 0.01714 0.61188 0.0615 0.83045 0.15262 0 0 0.2071 0.07223 0.20569 0.19035-4.62e-4 0.0585-0.0441 0.1049-0.08852 0.1366-0.32448 0.2299-0.77028 0.2952-1.167 0.28866-0.13429-0.0018-0.2452-0.02286-0.38165-0.08147-0.058102-0.02554-0.13432-0.08633-0.12336-0.15129 0.022044-0.12606 0.16154-0.15838 0.27702-0.14738 0.06428 0.0059 0.14844 0.03337 0.21158 0.05809 0.25436 0.10043 0.37043 0.1851 0.59417 0.15082 0.08358-0.01261 0.37304-0.07537 0.41198-0.19448 0.0096-0.02908-0.0043-0.06055-0.02569-0.0822-0.0304-0.03113-0.2046-0.09899-0.25184-0.11606-0.17043-0.06063-0.49365-0.11611-0.67315-0.12306-0.23544-0.0083-0.54804 0.03562-0.69399 0.23538-0.091564 0.12533-0.093953 0.29692-0.018691 0.42878 0.10234 0.18 0.30522 0.31972 0.47137 0.40085 0.28083 0.13583 0.61788 0.20048 0.92997 0.16612 0.17844-0.02037 0.33403-0.05682 0.49195-0.13338 0.15206-0.07315 0.31862-0.21118 0.39449-0.37576 0.10157-0.22119 0.09427-0.5134-0.01813-0.722-0.07392-0.13756-0.15489-0.21474-0.293-0.27573-0.14903-0.06662-0.34375-0.10232-0.54188-0.12925-0.01186-0.0015-0.01447-2e-3 -0.02664-0.0037l-0.91541-0.10793c-0.0123-0.0013-0.01459-0.0017-0.02638-0.0046-0.03967-0.0081-0.22485-0.02815-0.16001-0.09853 0.018216-0.02035 0.074284-0.03547 0.10673-0.04473 0.41419-0.11295 0.93967-0.10015 1.3745-0.12452 0.09704-0.0061 0.31802-0.01938 0.42483-0.05337 0.10182-0.03157 0.1858-0.1036 0.2093-0.21536 0.01164-0.05953-0.01681-0.08728-0.07249-0.11713-0.24797-0.13177-0.60606-0.17316-0.92498-0.17132zm5.096 0.02561c-0.6211 0.0011-1.433 0.15112-1.5268 0.19744-0.09357 0.04244-0.08332 0.11306 0.03872 0.26675 0.13101 0.16201 0.35122 0.14687 0.35122 0.14687l-0.19336 0.39995c-0.15789 0.01111-0.21205 0.06028-0.21205 0.06028-0.09101 0.09726 0.03459 0.38418 0.03459 0.38418s-0.27403 0.6147-0.07532 0.93934c0.21336 0.34067 0.46578 0.32437 0.46578 0.32437 0.48037 0.03511 1.2692-0.46796 1.3113-0.63409 0.03529-0.13402-0.08679-0.28108-0.1971-0.30847-0.10294-0.02134-0.89329 0.12694-0.9878 0.15224-0.10173 0.02726-0.05633-0.06823-0.05633-0.06823l0.12216-0.4131s0.75425-0.02915 0.86423-0.04748c0.10148-0.01822 0.10755-0.08985 0.10755-0.08985s0.01313-0.11837 0.0094-0.22868c-0.01111-0.11827-0.10562-0.10729-0.10562-0.10729-0.2917-0.03047-0.6927 0.0038-0.6927 0.0038l0.10119-0.31694s0.80236-0.03909 1.1075-0.10944c0.15664-0.03703 0.0645-0.19084 0.06445-0.19087-0.19021-0.38042-0.40949-0.35892-0.40949-0.35892-0.03944-0.0013-0.08002-0.0019-0.12143-0.0018zm-7.2138 0.07348c-0.063397-5.11e-4 -0.10055 0.08894-0.11859 0.13479-0.056364 0.14502-0.09702 0.4909-0.10815 0.59885-0.033484 0.32683-0.060777 1.1014-0.00404 1.496 0.02387 0.1654 0.078193 0.27294 0.24544 0.30753 0.067848 0.01399 0.19129 0.01134 0.24552-0.02338 0.047344-0.02944 0.080413-0.08691 0.091523-0.13634 0.03058-0.13743 0.018859-0.33249 0.012633-0.47919-0.00735-0.17323-0.011716-0.34561-0.01968-0.52086-0.010846-0.23348-0.03869-0.83002-0.1039-1.0997-0.028138-0.11612-0.075096-0.2218-0.18932-0.26524-0.013156-0.0051-0.028449-0.0095-0.038371-0.01117-0.00446-8.74e-4 -0.00884-0.0013-0.013062-0.0014zm9.7114 0.59924c0.07119-0.0035 0.0837 0.0941 0.0837 0.0941 0.0517 0.44057-0.26881 0.77175-0.4064 0.89383-0.08463 0.08019-0.36453 0.23765-0.65471 0.27023 0.27656-0.5359 0.62013-0.93045 0.8106-1.141 0.07612-0.08578 0.12951-0.11532 0.1668-0.11713zm-14.786 0.05873s-0.00543 0.24952-0.00675 0.50153c-0.00227 0.47771 0.010398 0.96267 0.010398 0.96267s-0.17032-0.061-0.27328-0.1036c-0.29968-0.12546-0.70658-0.3838-0.90724-0.55133-0.047872-0.03991-0.21858-0.20413-0.24875-0.23964-0.052162-0.06114-0.099093-0.12024-0.085937-0.19581 0.012518-0.07291 0.15657-0.13321 0.22748-0.1586 0.23639-0.08441 0.64593-0.1551 0.86388-0.17858 0.17131-0.01901 0.42019-0.03665 0.42019-0.03665z"/>
</svg>
