<svg width="24" height="24" version="1.1" viewBox="0 0 24 24" >
 <path d="m18.464 7.4645a4.5355 4.5355 0 0 0-4.1299 2.6744c0.0073-0.09909 0.01136-0.20285 0.01136-0.3128 0-1.8976-1.9289-2.2678-2.6066-2.2678h-3.7535v8.8729h3.91s2.346 0.10427 2.346-2.6066c0-0.06987-0.0026-0.13633-0.0068-0.201a4.5355 4.5355 0 0 0 4.2296 2.9119 4.5355 4.5355 0 0 0 4.5355-4.5355 4.5355 4.5355 0 0 0-4.5355-4.5355zm-17.464 0.09388v8.8729h2.4502v-3.2844h1.564v3.2844h2.4502v-8.8729h-2.4502v3.3469h-1.564v-3.3469zm9.1754 2.1635h1.3033s0.52133-0.00526 0.52133 0.63598c0 0.64123-0.52133 0.70379-0.52133 0.70379h-1.3033zm8.2891 0.036446a2.2417 2.2417 0 0 1 2.2417 2.2417 2.2417 2.2417 0 0 1-2.2417 2.2417 2.2417 2.2417 0 0 1-2.2417-2.2417 2.2417 2.2417 0 0 1 2.2417-2.2417zm0 0.41706a1.8246 1.8246 0 0 0-1.8246 1.8246 1.8246 1.8246 0 0 0 1.8246 1.8246 1.8246 1.8246 0 0 0 1.8246-1.8246 1.8246 1.8246 0 0 0-1.8246-1.8246zm-4.4777 1.1205a4.5355 4.5355 0 0 0-0.05784 0.7041 4.5355 4.5355 0 0 0 0.06374 0.72446c-0.43578-0.78337-1.2621-0.75452-0.95-0.81304 0.31687-0.05762 0.68123-0.22236 0.94409-0.61551zm-3.8114 1.6946h1.3033s0.52133 0 0.52133 0.62559c0 0.67772-0.52133 0.72986-0.52133 0.72986h-1.3033z" />
</svg>