<svg width="24" height="24" version="1.1" viewBox="0 0 24 24" >
<path d="m14.475 15.623h1.7476v-7.2465h-1.7476zm-3.0791-2.0616c0 0.25864-0.20953 0.46815-0.46778 0.46815h-1.0165c-0.25934 0-0.4685-0.20951-0.4685-0.46815v-2.9238h-1.7473v3.0696c0 1.2546 0.80257 1.9157 1.9894 1.9157h1.7106v-9e-3c1.0931 0 1.7476-0.77765 1.7476-1.9066v-3.0696h-1.7476v2.9238zm9.8564-2.9238v2.9238c0 0.25864-0.20951 0.46815-0.46778 0.46815h-1.0165c-0.25897 0-0.46813-0.20951-0.46813-0.46815v-2.9238h-1.7476v3.0696c0 1.2546 0.80257 1.9157 1.9894 1.9157h1.7106v-9e-3c1.0931-1.5e-4 1.7472-0.7778 1.7472-1.9067v-3.0696zm-16.795 0h-1.1205c-0.3934 0-0.59049 0.10604-0.59049 0.10604v-2.3672h-1.7472v7.2465h1.7472v-2.9242c0-0.25861 0.20953-0.46815 0.46813-0.46815h1.0169c0.2586 0 0.46778 0.20954 0.46778 0.46815v2.9242h1.7476v-3.1506c0-1.3249-0.88352-1.8348-1.9894-1.8348z" />
</svg>
