<svg width="24" height="24" version="1.1" viewBox="0 0 24 24" >
 <path d="m4.0251 14.59c-0.33095 0.0581-0.66771 0.0755-1.0161 0.12194l-1.0626-3.1121v3.2457c-0.33095 0.03484-0.63287 0.08128-0.94641 0.12773v-5.9456h0.88258l1.2077 3.3735v-3.3735h0.93481zm1.829-3.385c0.36001 0 0.9116-0.0174 1.2425-0.0174v0.92899c-0.41226 0-0.89416 0-1.2425 0.0174v1.3819c0.54581-0.0348 1.0916-0.0813 1.6432-0.0988v0.89412l-2.5722 0.20326v-5.4869h2.5722v0.92901h-1.6432zm5.0979-1.2483h-0.96383v4.2734c-0.31354 0-0.62709 0-0.92896 0.0115v-4.285h-0.96383v-0.92903h2.8567zm1.5096 1.1845h1.2716v0.92899h-1.2716v2.1077h-0.91165v-5.1502h2.5955v0.92901h-1.6838zm3.1935 2.2238c0.52839 0.0115 1.0625 0.0522 1.5793 0.0813v0.9174c-0.83028-0.0522-1.6606-0.10447-2.5083-0.12194v-5.214h0.92898zm2.3632 1.0626c0.29612 0.0174 0.60966 0.0348 0.91158 0.0697v-5.4695h-0.91158zm4.9818-5.3998-1.1787 2.8277 1.1787 3.118c-0.34841-0.0465-0.69678-0.11032-1.0452-0.16839l-0.66769-1.7186-0.67927 1.5793c-0.33683-0.0581-0.66198-0.0755-0.99868-0.12199l1.1961-2.7231-1.08-2.7928h0.99864l0.60966 1.5619 0.65033-1.5619z" />
</svg>