<svg width="24" height="24" version="1.1" viewBox="0 0 24 24" >
 <path d="m1 8.4337v7.129h1.5116v-2.5356h0.64852c0.88419 0 1.566-0.20314 2.0456-0.60954 0.47946-0.40631 0.71922-0.99303 0.71922-1.7603 0-0.73792-0.22516-1.293-0.67537-1.6652-0.45027-0.37222-1.1077-0.55834-1.9724-0.55834zm5.641 0v7.129h4.4032v-1.2483h-2.8916v-5.8807zm5.1158 0v7.129h4.114v-1.2483h-2.5993v-1.8384h2.4185v-1.2385h-2.4185v-1.5653h2.5993v-1.2386zm4.8272 0 2.2813 3.5663-2.2813 3.5663h2.0674l1.1975-1.872 1.0837 1.8685h2.0656l-2.0656-3.5626 4.2e-5 -8e-5 -4.2e-5 -8e-5 2.0674-3.5662h-2.0674l-1.0848 1.8703-1.1964-1.8703zm-14.071 1.2383h0.76139c1.1253 0.0124 1.1252 0.80932 1.1252 1.0587 0 0.26861-0.066144 1.0438-1.332 1.0586l-0.55465-6.7e-4z" />
</svg>