<svg width="24" height="24" version="1.1" viewBox="0 0 24 24" >
 <path d="m10.286 1.9505c-0.1962 0-0.35329 0.054364-0.47187 0.16315-0.11857 0.10868-0.1772 0.25608-0.1772 0.44273 0 0.18673 0.058636 0.33408 0.1772 0.44345 0.11858 0.10868 0.27567 0.16315 0.47187 0.16315 0.19611 0 0.35305-0.054455 0.47172-0.16315 0.11857-0.10937 0.17794-0.25673 0.17794-0.44345 0-0.18665-0.05936-0.33405-0.17794-0.44273-0.11866-0.10876-0.27561-0.16315-0.47172-0.16315zm3.9659 1.7095a2.0706 2.0706 0 0 0-0.6772 0.11321c-0.21891 0.074727-0.46523 0.2031-0.73826 0.38458l-0.061909-0.20957c-0.026091-0.11402-0.097791-0.17105-0.21646-0.17105h-0.5571c-0.06645 0-0.11605 0.013818-0.1466 0.042636-0.03064 0.028182-0.04627 0.078545-0.04627 0.15128v3.5837c0 0.067455 0.01564 0.11667 0.04627 0.14748 0.03055 0.031455 0.08018 0.046455 0.1466 0.046455h0.74295c0.07164 0 0.12189-0.015 0.15056-0.046455 0.028-0.030818 0.04236-0.08 0.04236-0.14748v-2.8141c0.27897-0.14017 0.56233-0.20957 0.85103-0.20957 0.31408 0 0.47186 0.17632 0.47186 0.52869v2.4949c0 0.067455 0.01509 0.11667 0.04627 0.14748 0.03064 0.031455 0.07945 0.046455 0.14659 0.046455h0.74223c0.07227 0 0.12248-0.015 0.15114-0.046455 0.028-0.030818 0.04236-0.08 0.04236-0.14748v-2.8218c0.28345-0.13493 0.56439-0.20181 0.84267-0.20181 0.31477 0 0.47187 0.17632 0.47187 0.52869v2.4949c0 0.067455 0.01564 0.11667 0.04682 0.14748 0.03064 0.031455 0.07945 0.046455 0.1466 0.046455h0.74221c0.07227 0 0.12254-0.015 0.15129-0.046455 0.028-0.030818 0.04236-0.08 0.04236-0.14748v-2.7439c0-0.36287-0.0998-0.64513-0.29789-0.84752-0.19876-0.20179-0.47833-0.3033-0.83931-0.3033a2.2428 2.2428 0 0 0-0.71877 0.11716c-0.23199 0.077273-0.47959 0.20439-0.74222 0.38063-0.19094-0.33146-0.51797-0.49779-0.98196-0.49779zm6.2166 0c-0.6236 0-1.1104 0.19198-1.461 0.57585-0.35056 0.38318-0.5259 0.91171-0.5259 1.585 0 0.65837 0.17136 1.1633 0.51419 1.5158 0.34274 0.35306 0.83345 0.52869 1.4727 0.52869 0.42294 0 0.82236-0.072818 1.199-0.21763 0.06709-0.025455 0.11221-0.055636 0.13562-0.089 0.02282-0.034091 0.03454-0.092336 0.03454-0.17485v-0.35764c0-0.11927-0.04373-0.17882-0.13166-0.17882-0.01046 0-0.02282 0.00182-0.03855 0.00364a0.28655 0.28655 0 0 0-0.04609 0.011727c-0.2425 0.061636-0.43202 0.10231-0.56824 0.11995-0.13682 0.018364-0.27759 0.027546-0.42164 0.027546-0.36098 0-0.63025-0.075364-0.80811-0.22539-0.17795-0.14998-0.28277-0.39881-0.31341-0.74603 0.21633 0.057 0.47178 0.085091 0.76565 0.085091 0.56698 0 0.99638-0.099536 1.2878-0.29935 0.29059-0.19913 0.43656-0.49319 0.43656-0.88223 0-0.38843-0.13558-0.69955-0.40596-0.93275-0.27046-0.2332-0.64584-0.34988-1.1255-0.34988zm-16.218 6e-4c-0.22683 0-0.45028 0.043909-0.66928 0.13166-0.21891 0.088455-0.40601 0.20765-0.56046 0.35763l-0.054-0.20181c-0.026091-0.11401-0.097646-0.17091-0.21631-0.17091h-0.5571c-0.067091 0-0.11611 0.013818-0.14675 0.042636-0.031273 0.028818-0.046909 0.079273-0.046909 0.15128v5.1845c0 0.07273 0.015545 0.12304 0.046909 0.15186 0.030636 0.02818 0.079636 0.04264 0.14675 0.04264h0.74207c0.072364 0 0.12263-0.01445 0.15128-0.04264 0.028091-0.02882 0.042364-0.07918 0.042364-0.15186v-1.7018c0.13424 0.11917 0.29645 0.21211 0.48739 0.27957 0.19025 0.067455 0.39163 0.1009 0.60279 0.1009 0.31993 0 0.60346-0.086455 0.85103-0.26068 0.24705-0.17295 0.44321-0.42041 0.58785-0.74206 0.14405-0.32097 0.21646-0.69701 0.21646-1.1267 0-0.62756-0.14603-1.1247-0.43731-1.4928-0.29128-0.36752-0.68692-0.55154-1.1867-0.55154zm4.6157 0.077636a1.2426 1.2426 0 0 0-0.58405 0.14337c-0.18311 0.096291-0.37784 0.25813-0.58375 0.48607l-0.10032-0.41987c-0.026091-0.11393-0.098464-0.17105-0.21704-0.17105h-0.55666c-0.067091 0-0.11596 0.014455-0.1466 0.042636-0.031273 0.028818-0.046909 0.079273-0.046909 0.15202v3.5829c0 0.067455 0.015636 0.11656 0.046909 0.14806 0.030636 0.030727 0.079455 0.046546 0.1466 0.046546h0.74236c0.072364 0 0.12248-0.015818 0.15114-0.046546 0.028091-0.031455 0.042364-0.080636 0.042364-0.14806v-2.6115c0.11857-0.051818 0.26264-0.094364 0.43276-0.12844 0.17072-0.033364 0.31468-0.050364 0.43335-0.050364a2.4323 2.4323 0 0 1 0.21631 0.00818c0.056727 0.00545 0.10308 0.00818 0.13957 0.00818 0.072273 0 0.12235-0.015636 0.1504-0.046455 0.028636-0.031455 0.042364-0.080636 0.042364-0.14806v-0.65302c0-0.072-0.014909-0.12245-0.046091-0.15128-0.030636-0.028182-0.082182-0.042636-0.1545-0.042636zm1.0487 0.038546c-0.067091 0-0.11601 0.014364-0.14733 0.043182-0.030636 0.028273-0.046273 0.078545-0.046273 0.15129v3.5831c0 0.067455 0.015636 0.11711 0.046273 0.14791 0.031273 0.030818 0.080182 0.046546 0.14733 0.046546h0.74222c0.07236 0 0.1225-0.015727 0.15055-0.046546 0.02864-0.030818 0.04309-0.080455 0.04309-0.14791v-3.5831c0-0.072727-0.01436-0.12306-0.04309-0.15129-0.02809-0.028818-0.07818-0.043182-0.15055-0.043182zm10.469 0.6687c0.38646 0 0.5801 0.16312 0.5801 0.49003 0 0.16573-0.05936 0.28876-0.17794 0.36862-0.11858 0.080636-0.30956 0.12053-0.57218 0.12053-0.25282 0-0.48211-0.020182-0.68803-0.062091 0.07682-0.61112 0.36284-0.91707 0.85806-0.91707zm-16.497 0.07c0.29386 0 0.50766 0.098255 0.6419 0.29539 0.13424 0.19715 0.20137 0.51018 0.20137 0.94052 0 0.42508-0.068546 0.73566-0.20533 0.93289-0.13682 0.19715-0.34925 0.29539-0.63795 0.29539-0.27828 0-0.53105-0.070091-0.75788-0.2103v-2.0443c0.23724-0.13957 0.49001-0.20957 0.75788-0.20957zm3.4727 5.1207c-0.20538 0-0.37013 0.05727-0.49443 0.17178-0.12429 0.11452-0.18657 0.27007-0.18657 0.4663 0 0.19633 0.062273 0.35179 0.18657 0.46631 0.1243 0.11451 0.28905 0.17164 0.49443 0.17164s0.37026-0.05709 0.49456-0.17164c0.1243-0.11452 0.18658-0.26998 0.18658-0.46631 0-0.19623-0.062273-0.35178-0.18658-0.4663-0.1243-0.11451-0.28918-0.17178-0.49456-0.17178zm4.4266 0.04918c-0.07018 0-0.12163 0.01482-0.15406 0.04482-0.03245 0.03-0.04864 0.08327-0.04864 0.15963v1.914c-0.31346-0.24543-0.68371-0.36804-1.1107-0.36804-0.52427 0-0.94601 0.20306-1.2649 0.60938-0.3189 0.40624-0.47816 0.94751-0.47816 1.6237 0 0.42534 0.068727 0.80018 0.20664 1.1246 0.1378 0.32452 0.33645 0.57795 0.59592 0.76067 0.25946 0.18265 0.56481 0.27401 0.91605 0.27401 0.4595 0 0.8567-0.1527 1.1918-0.4581l0.04864 0.18819c0.01618 0.06536 0.042 0.11186 0.077 0.13913 0.03518 0.02727 0.08509 0.04082 0.14996 0.04082h0.64864c0.07564 0 0.12831-0.01636 0.15802-0.04909 0.02973-0.03282 0.04464-0.08446 0.04464-0.15538v-5.6439c0-0.07636-0.01491-0.12964-0.04464-0.15964-0.02973-0.03-0.08236-0.04482-0.15802-0.04482zm8.1427 1.7504c-0.64314 0-1.1458 0.19485-1.5079 0.58478-0.36212 0.38984-0.5432 0.93111-0.5432 1.6237 0 0.69794 0.18108 1.2418 0.5432 1.6318 0.36211 0.38992 0.86473 0.58493 1.5079 0.58493 0.64323 0 1.1459-0.19501 1.508-0.58493 0.36211-0.38993 0.54318-0.93382 0.54318-1.6318 0-0.6926-0.18107-1.2339-0.54318-1.6237-0.36211-0.38993-0.86478-0.58478-1.508-0.58478zm-4.2732 0.03864c-0.63996 0-1.1395 0.19807-1.4994 0.59416-0.35976 0.39554-0.53953 0.94091-0.53953 1.6359 0 0.67937 0.17574 1.2006 0.52752 1.5642 0.35169 0.36438 0.85538 0.54554 1.5114 0.54554 0.43396 0 0.84392-0.075 1.2305-0.22436 0.06882-0.02636 0.11489-0.05755 0.13898-0.09197 0.02336-0.03518 0.03545-0.09527 0.03545-0.18043v-0.36921c0-0.12303-0.04473-0.18453-0.13503-0.18453-0.01073 0-0.02336 0.0018-0.03936 0.0045-0.01609 0.0027-0.03209 0.0073-0.04745 0.01218-0.24877 0.06364-0.44338 0.10546-0.58317 0.12376-0.14043 0.01891-0.28501 0.02827-0.43276 0.02827-0.37045 0-0.64666-0.07773-0.82921-0.23242-0.18255-0.15483-0.29017-0.41167-0.32161-0.76989 0.22196 0.05882 0.48411 0.08791 0.78571 0.08791 0.58181 0 1.0225-0.10291 1.3214-0.30902 0.29824-0.20556 0.448-0.50896 0.448-0.91049 0-0.40088-0.13907-0.72206-0.41666-0.96277-0.2775-0.24062-0.66266-0.36086-1.1548-0.36086zm-13.474 0.08391c-0.10808 0-0.16212 0.04091-0.16212 0.12273a0.28954 0.28954 0 0 0 0.016091 0.09009 3.327 3.327 0 0 0 0.040545 0.11453l1.3863 3.6399c0.021636 0.05455 0.044636 0.09669 0.069 0.12668a0.21199 0.21199 0 0 0 0.089182 0.06564c0.035182 0.01355 0.079818 0.02036 0.13385 0.02036h0.70516c0.059546 0 0.10553-0.0064 0.13795-0.02036a0.21797 0.21797 0 0 0 0.085091-0.06564c0.024364-0.03 0.047364-0.07218 0.069-0.12668l1.3863-3.6399c0.016182-0.04364 0.029727-0.08182 0.040545-0.11453 0.010909-0.03273 0.016091-0.06282 0.016091-0.09009 0-0.08182-0.053909-0.12273-0.16212-0.12273h-0.78645c-0.086546 0-0.14989 0.01645-0.19039 0.04918-0.040545 0.03273-0.071727 0.08718-0.093291 0.16358l-0.85132 2.8956-0.83506-2.8956c-0.021636-0.07636-0.052636-0.13088-0.093145-0.16358-0.040636-0.03273-0.10411-0.04918-0.19054-0.04918zm4.7891 0c-0.070273 0-0.12178 0.01509-0.15421 0.04509-0.032455 0.03-0.048636 0.08309-0.048636 0.15948v3.7708c0 0.07091 0.016182 0.12259 0.048636 0.15538 0.032455 0.03273 0.083909 0.04909 0.15421 0.04909h0.77825c0.075636 0 0.12845-0.01636 0.15816-0.04909 0.029727-0.03282 0.044545-0.08445 0.044545-0.15538v-3.7708c0-0.07636-0.014818-0.1295-0.044545-0.15948-0.029727-0.03-0.082545-0.04509-0.15816-0.04509zm8.5982 0.72654c0.39654 0 0.59517 0.16832 0.59517 0.5057 0 0.17096-0.06082 0.29809-0.18262 0.38063-0.12167 0.08309-0.31756 0.12434-0.58698 0.12434-0.25946 0-0.49492-0.02109-0.70619-0.06427 0.07891-0.63073 0.37237-0.94637 0.88062-0.94637zm-4.7879 0.05064c0.30268 0 0.57033 0.06809 0.80271 0.20445v2.1594c-0.23782 0.15266-0.48642 0.22906-0.74588 0.22906-0.30812 0-0.53644-0.10635-0.6851-0.31897-0.14867-0.21272-0.22305-0.53716-0.22305-0.97346 0-0.43622 0.070364-0.76198 0.21089-0.97742 0.14052-0.21534 0.35396-0.32307 0.64043-0.32307zm9.1481 0.01627c0.56749 0 0.85132 0.43078 0.85132 1.2924 0 0.867-0.28383 1.3005-0.85132 1.3005s-0.85118-0.43349-0.85118-1.3005c0-0.86166 0.28369-1.2924 0.85118-1.2924zm0.60279 5.0448c-0.7126 0-1.5721 0.1629-2.2184 0.65097-0.07782 0.05882-0.1186 0.12617-0.12595 0.1838v0.03573c0.0091 0.06645 0.071 0.11108 0.17998 0.09725 0.70355-0.09091 2.2725-0.2925 2.5519 0.0927 0.27982 0.38431-0.31059 1.9694-0.57438 2.6754-0.07918 0.21272 0.09156 0.30054 0.27108 0.13752 1.1732-1.0526 1.4762-3.2598 1.2353-3.5781-0.11461-0.15257-0.65298-0.29524-1.3195-0.29524zm-18.291 0.2311c-0.090973 0-0.15636 0.06309-0.16915 0.14586v0.05991c0.00727 0.05118 0.034364 0.10569 0.085546 0.15538 2.607 2.5365 6.0509 4.0607 9.8752 4.0607 2.729 0 5.8982-0.92482 8.0843-2.6628 0.36132-0.28912 0.05182-0.71952-0.31751-0.55125-2.4506 1.1205-5.1134 1.6628-7.537 1.6628-3.5914 0-7.069-1.0621-9.8802-2.825-0.050636-0.03164-0.098764-0.04555-0.14118-0.04555z" />
</svg>
